SplineFontDB: 3.0
FontName: FabrikFootNote
FullName: FabrikFootNote
FamilyName: FabrikFootNote
Weight: Normal
Copyright: OFL Open Font License
Version: Version 1.5 (20.02.2010)
DefaultBaseFilename: fabrik_ft
ItalicAngle: 0
UnderlinePosition: -125
UnderlineWidth: 50
Ascent: 800
Descent: 200
LayerCount: 2
Layer: 0 1 "Back" 
Layer: 1 1 "Fore" 
XUID: [1021 639 1133821918 7620076]
UniqueID: 4221887
FSType: 0
OS2Version: 0
OS2_WeightWidthSlopeOnly: 0
OS2_UseTypoMetrics: 0
CreationTime: 1256911458
ModificationTime: 1266667985
PfmFamily: 17
TTFWeight: 400
TTFWidth: 5
LineGap: 90
VLineGap: 90
OS2TypoAscent: 0
OS2TypoAOffset: 1
OS2TypoDescent: 0
OS2TypoDOffset: 1
OS2TypoLinegap: 90
OS2WinAscent: 0
OS2WinAOffset: 1
OS2WinDescent: 0
OS2WinDOffset: 1
HheadAscent: 0
HheadAOffset: 1
HheadDescent: 0
HheadDOffset: 1
OS2Vendor: 'PfEd'
Lookup: 4 0 1 "'liga' Standard Ligatures in Latin lookup 0"  {"'liga' Standard Ligatures in Latin lookup 0 subtable"  } ['liga' ('latn' <'dflt' > ) ]
Lookup: 4 0 0 "'dlig' optionale Ligaturen in Latin lookup 1"  {"'dlig' optionale Ligaturen in Latin lookup 1 subtable"  } ['dlig' ('latn' <'dflt' > ) ]
Lookup: 258 0 0 "'kern' Horizontales Kerning in Latin lookup 0"  {"'kern' Horizontales Kerning in Latin lookup 0 subtable"  } ['kern' ('latn' <'dflt' > ) ]
DEI: 0
LangName: 1033 
Encoding: AdobeStandard
UnicodeInterp: none
NameList: Adobe Glyph List
DisplaySize: -24
AntiAlias: 1
FitToEm: 1
WinInfo: 0 29 15
BeginPrivate: 7
BlueValues 32 [-13 1 419 433 686 718 748 748 ]
OtherBlues 12 [-205 -187 ]
StdHW 4 [86]
StemSnapH 32 [20 67 77 81 86 91 444 455 467 ]
StdVW 4 [91]
StemSnapV 11 [84 91 96 ]
BlueScale 9 0.0309375
EndPrivate
TeXData: 1 0 0 368050 184025 122683 429916 1048576 122683 783286 444596 497025 792723 393216 433062 380633 303038 157286 324010 404750 52429 2506097 1059062 262144
BeginChars: 327 182

StartChar: .notdef
Encoding: 0 -1 0
AltUni2: 00fffd.ffffffff.0
Width: 500
HStem: 0 50<100 400> 483 50<100 400>
VStem: 50 50<50 483> 400 50<50 483>
LayerCount: 2
Fore
SplineSet
50 0 m 1,0,-1
 50 533 l 1,1,-1
 450 533 l 1,2,-1
 450 0 l 1,3,-1
 50 0 l 1,0,-1
100 50 m 1,4,-1
 400 50 l 1,5,-1
 400 483 l 1,6,-1
 100 483 l 1,7,-1
 100 50 l 1,4,-1
EndSplineSet
EndChar

StartChar: exclam
Encoding: 33 33 4
Width: 218
Flags: W
HStem: 0 21G<99 121> 673 20G<74 155>
VStem: 52 116<24.3065 95.1> 74 81<252 693>
LayerCount: 2
Fore
SplineSet
74 693 m 1,0,-1
 155 693 l 1,1,-1
 155 252 l 1,2,-1
 75 252 l 1,3,-1
 74 693 l 1,0,-1
52 60 m 0,4,5
 52 87 52 87 70 102.75 c 128,-1,6
 88 118.5 88 118.5 110 118.5 c 128,-1,7
 131.994 118.5 131.994 118.5 150 103.75 c 128,-1,8
 168 89.005 168 89.005 168 62 c 0,9,10
 168 33.005 168 33.005 150 16.5 c 128,-1,11
 132 0 132 0 110 0 c 128,-1,12
 88 0 88 0 70 16 c 128,-1,13
 52 32 52 32 52 60 c 0,4,5
EndSplineSet
EndChar

StartChar: quotedbl
Encoding: 34 34 5
Width: 340
Flags: W
HStem: 558 197.5<248 256.5>
LayerCount: 2
Fore
SplineSet
248 558 m 1,0,1
 245 571.005 245 571.005 222.5 627 c 128,-1,2
 200 682.995 200 682.995 200 699 c 0,3,4
 200 724.995 200 724.995 217.5 740.25 c 128,-1,5
 235.005 755.505 235.005 755.505 256.5 755.5 c 128,-1,6
 278.006 755.5 278.006 755.5 296 740.25 c 128,-1,7
 314 724.995 314 724.995 314 696 c 1,8,9
 310 672 310 672 301 649 c 128,-1,10
 292.011 626.034 292.011 626.034 285.5 614.5 c 128,-1,11
 279.047 603.069 279.047 603.069 265 583 c 128,-1,12
 251 563 251 563 248 558 c 1,0,1
74 558 m 1,13,14
 71 571.005 71 571.005 48.5 627 c 128,-1,15
 26 682.995 26 682.995 26 699 c 0,16,17
 26 724.995 26 724.995 43.5 740.25 c 128,-1,18
 61.005 755.505 61.005 755.505 82.5 755.5 c 128,-1,19
 104.006 755.5 104.006 755.5 122 740.25 c 128,-1,20
 140 724.995 140 724.995 140 696 c 1,21,22
 136 672 136 672 127 649 c 128,-1,23
 118.011 626.034 118.011 626.034 111.5 614.5 c 128,-1,24
 105.047 603.069 105.047 603.069 91 583 c 128,-1,25
 77 563 77 563 74 558 c 1,13,14
EndSplineSet
EndChar

StartChar: numbersign
Encoding: 35 35 6
Width: 455
Flags: W
HStem: 219 87<47 105 182 272 350 408> 389 91<47 105 182 272 350 408>
VStem: 105 77<70 219 306 389 480 620> 272 78<70 219 306 389 480 620>
LayerCount: 2
Fore
SplineSet
105 620 m 1,0,-1
 182 620 l 1,1,-1
 182 480 l 1,2,-1
 272 480 l 1,3,-1
 272 620 l 1,4,-1
 350 620 l 1,5,-1
 350 480 l 1,6,-1
 408 480 l 1,7,-1
 408 389 l 1,8,-1
 350 389 l 1,9,-1
 350 306 l 1,10,-1
 408 306 l 1,11,-1
 408 219 l 1,12,-1
 350 219 l 1,13,-1
 350 70 l 1,14,-1
 272 70 l 1,15,-1
 272 219 l 1,16,-1
 182 219 l 1,17,-1
 182 70 l 1,18,-1
 105 70 l 1,19,-1
 105 219 l 1,20,-1
 47 219 l 1,21,-1
 47 306 l 1,22,-1
 105 306 l 1,23,-1
 105 390 l 1,24,-1
 47 390 l 1,25,-1
 47 480 l 1,26,-1
 105 480 l 1,27,-1
 105 620 l 1,0,-1
182 389 m 1,28,-1
 182 306 l 1,29,-1
 272 306 l 1,30,-1
 272 389 l 1,31,-1
 182 389 l 1,28,-1
EndSplineSet
EndChar

StartChar: dollar
Encoding: 36 36 7
Width: 733
Flags: W
VStem: 169.48 398.28<111 237>
LayerCount: 2
Fore
SplineSet
330.98 750 m 1,0,-1
 405.76 750 l 1,1,-1
 393.79 682 l 1,2,3
 460.585 682 460.585 682 507.45 640 c 1,4,-1
 466.57 578 l 1,5,6
 429.377 602.19 429.377 602.19 390.95 608.52 c 128,-1,7
 352.52 614.85 352.52 614.85 319.28 596.67 c 128,-1,8
 286.055 578.49 286.055 578.49 272.66 534.5 c 1,9,10
 271.459 506.949 271.459 506.949 282.83 485.36 c 128,-1,11
 294.203 463.74 294.203 463.74 316.44 449.47 c 128,-1,12
 338.609 435.239 338.609 435.239 357.88 426.53 c 128,-1,13
 376.982 417.904 376.982 417.904 404.58 408.72 c 128,-1,14
 431.997 399.611 431.997 399.611 440.9 395.75 c 0,15,16
 502.751 368.891 502.751 368.891 533.56 332.25 c 128,-1,17
 564.4 295.605 564.4 295.605 567.76 237 c 0,18,19
 567.46 156.27 567.46 156.27 524.38 102.99 c 128,-1,20
 481.3 49.71 481.3 49.71 402.76 31 c 1,21,-1
 410.74 -30 l 1,22,-1
 335.97 -30 l 1,23,-1
 342.95 27 l 1,24,25
 260.59 31.5297 260.59 31.5297 169.48 111 c 1,26,-1
 209.35 180 l 1,27,28
 238.215 150.1 238.215 150.1 272.27 132.03 c 128,-1,29
 306.354 113.953 306.354 113.953 341.06 109.77 c 128,-1,30
 375.766 105.586 375.766 105.586 409.36 121.37 c 128,-1,31
 442.96 137.157 442.96 137.157 467.57 173 c 1,32,33
 492.14 223.505 492.14 223.505 475.12 261.26 c 128,-1,34
 458.106 299.025 458.106 299.025 407.75 321 c 0,35,36
 367.161 333.603 367.161 333.603 341.43 343.25 c 128,-1,37
 315.856 352.838 315.856 352.838 283.06 371.12 c 128,-1,38
 250.256 389.406 250.256 389.406 231.87 410.13 c 128,-1,39
 213.463 430.861 213.463 430.861 200.57 463.58 c 128,-1,40
 187.7 496.295 187.7 496.295 188.42 537 c 0,41,42
 189.5 597.93 189.5 597.93 233.17 635.45 c 128,-1,43
 276.85 672.965 276.85 672.965 343.94 682 c 1,44,-1
 330.98 750 l 1,0,-1
EndSplineSet
EndChar

StartChar: percent
Encoding: 37 37 8
Width: 560
Flags: W
HStem: 515 57<128.357 168.989>
VStem: 40 67<437.9 497.699> 190 69<437.603 500.005> 304 67<125.9 194.8> 454 70<126.907 195.793>
LayerCount: 2
Fore
SplineSet
107 473 m 0,0,1
 107 446 107 446 128 434.5 c 128,-1,2
 148.997 422.996 148.997 422.996 169.5 434.5 c 128,-1,3
 190 446.002 190 446.002 190 474 c 0,4,5
 190 494.004 190 494.004 177 504.5 c 128,-1,6
 163.995 515 163.995 515 148.5 515 c 128,-1,7
 133.005 515 133.005 515 120 503.5 c 128,-1,8
 107 491.999 107 491.999 107 473 c 0,0,1
40 472 m 0,9,10
 40 506 40 506 56 530 c 128,-1,11
 72.005 554 72.005 554 96.5 563 c 128,-1,12
 120.995 572 120.995 572 149.5 572 c 128,-1,13
 177.995 572 177.995 572 202.5 559.5 c 128,-1,14
 226.995 547.005 226.995 547.005 243 523 c 128,-1,15
 259.005 499 259.005 499 259 469 c 0,16,17
 259 437.005 259 437.005 243 412 c 128,-1,18
 226.995 386.995 226.995 386.995 202.5 375.25 c 128,-1,19
 177.995 363.5 177.995 363.5 149.5 363.5 c 128,-1,20
 120.984 363.5 120.984 363.5 96.5 374.25 c 128,-1,21
 72.005 385.005 72.005 385.005 56 410.5 c 128,-1,22
 39.995 436 39.995 436 40 472 c 0,9,10
371 161 m 0,23,24
 371 134 371 134 392 123 c 128,-1,25
 413.007 112.002 413.007 112.002 433.5 123.5 c 128,-1,26
 454.005 135.005 454.005 135.005 454 162 c 0,27,28
 454 187.995 454 187.995 433.5 198.5 c 128,-1,29
 413.002 208.996 413.002 208.996 392 198 c 128,-1,30
 371 187 371 187 371 161 c 0,23,24
304 160 m 0,31,32
 304 194.995 304 194.995 320.5 219 c 128,-1,33
 337 243 337 243 361 251.75 c 128,-1,34
 385.014 260.5 385.014 260.5 413.5 260.5 c 128,-1,35
 442.005 260.5 442.005 260.5 466.5 247.75 c 128,-1,36
 491.008 234.993 491.008 234.993 507.5 211.5 c 128,-1,37
 524 187.995 524 187.995 524 157 c 0,38,39
 524 124.995 524 124.995 507.5 100.5 c 128,-1,40
 491.003 76.0088 491.003 76.0088 466.5 63.75 c 128,-1,41
 442.015 51.5 442.015 51.5 413.5 51.5 c 128,-1,42
 385 51.5 385 51.5 361 62.25 c 128,-1,43
 337 73.005 337 73.005 320.5 98.5 c 128,-1,44
 304 124 304 124 304 160 c 0,31,32
462 559 m 1,45,-1
 519 500 l 1,46,-1
 86 52 l 1,47,-1
 29 111 l 1,48,-1
 462 559 l 1,45,-1
EndSplineSet
EndChar

StartChar: ampersand
Encoding: 38 38 9
Width: 520
Flags: W
HStem: -8.28999 82.34<151.303 293.72> 325.99 84.52<190.957 372.97 455.78 510.44> 545.43 86.07<214.812 301.232>
VStem: 8.99004 83.2401<154.666 260.967> 95.12 87.59<443.926 513.555> 372.97 82.81<167.068 357.519>
LayerCount: 2
Fore
SplineSet
502.94 410.51 m 2,0,-1
 510.44 410.51 l 1,1,-1
 510.44 325.99 l 1,2,-1
 455.78 325.99 l 1,3,4
 455.94 238.51 455.94 238.51 455.94 209.11 c 0,5,6
 455.94 153.073 455.94 153.073 424.39 99.92 c 0,7,8
 393.34 47.63 393.34 47.63 340.73 19.54 c 0,9,10
 288.611 -8.28999 288.611 -8.28999 229.03 -8.28999 c 0,11,12
 169.24 -8.28999 169.24 -8.28999 119.85 21.31 c 128,-1,13
 70.62 50.8 70.62 50.8 39.81 101.93 c 128,-1,14
 8.99004 153.057 8.99004 153.057 8.99004 211.1 c 128,-1,15
 8.99004 269.135 8.99004 269.135 36.6 321.08 c 128,-1,16
 64.215 373.04 64.215 373.04 110.34 402.91 c 1,17,18
 95.12 435.631 95.12 435.631 95.12 460.84 c 0,19,20
 95.12 545.365 95.12 545.365 154.51 594.43 c 0,21,22
 199.375 631.495 199.375 631.495 254.14 631.5 c 0,23,24
 290.365 631.5 290.365 631.5 325.75 615.84 c 128,-1,25
 361.122 600.207 361.122 600.207 384.61 568.54 c 1,26,-1
 323.24 507.05 l 1,27,28
 298.433 545.43 298.433 545.43 262.08 545.43 c 128,-1,29
 225.72 545.43 225.72 545.43 204.21 525.48 c 128,-1,30
 182.71 505.525 182.71 505.525 182.71 478.76 c 128,-1,31
 182.71 451.965 182.71 451.965 193.05 431.42 c 128,-1,32
 203.385 410.855 203.385 410.855 244.81 410.85 c 2,33,-1
 378.65 410.85 l 2,34,35
 463.973 410.51 463.973 410.51 502.94 410.51 c 2,0,-1
226.69 325.99 m 2,36,37
 199.747 326.005 199.747 326.005 181.32 325.37 c 0,38,39
 163.177 324.73 163.177 324.73 150.28 324.73 c 0,40,41
 129.883 324.73 129.883 324.73 111.06 286.71 c 128,-1,42
 92.2352 248.7 92.2352 248.7 92.2301 207.81 c 128,-1,43
 92.2301 166.93 92.2301 166.93 117.82 133.45 c 0,44,45
 163.225 74.05 163.225 74.05 233.27 74.05 c 0,46,47
 279.77 74.05 279.77 74.05 313.66 100.07 c 128,-1,48
 347.63 126.163 347.63 126.163 360.3 157.41 c 128,-1,49
 372.98 188.645 372.98 188.645 372.98 203.41 c 0,50,51
 372.97 213.24 372.97 213.24 372.97 325.99 c 1,52,-1
 226.69 325.99 l 2,36,37
EndSplineSet
EndChar

StartChar: quotesingle
Encoding: 169 39 10
Width: 154
Flags: W
HStem: 485 199<74 76>
VStem: 20 112<581.8 659.794>
LayerCount: 2
Fore
SplineSet
74 485 m 5,0,1
 20 566 20 566 20 626 c 4,2,3
 20 651.995 20 651.995 37.5 668 c 132,-1,4
 55 684 55 684 76 684 c 132,-1,5
 97.001 684 97.001 684 114.5 669.5 c 132,-1,6
 132.005 654.995 132.005 654.995 132 626 c 4,7,8
 132 592 132 592 113 552 c 132,-1,9
 93.9951 511.995 93.9951 511.995 74 485 c 5,0,1
EndSplineSet
EndChar

StartChar: parenleft
Encoding: 40 40 11
Width: 268
Flags: W
VStem: 40 94<7.015 599.785>
LayerCount: 2
Fore
SplineSet
40 148 m 2,0,-1
 40 326.5 l 1,1,-1
 40 502 l 2,2,3
 40 599.785 40 599.785 98 670.5 c 0,4,5
 158.374 744.104 158.374 744.104 229 775 c 1,6,-1
 229 672 l 1,7,8
 134.005 609.09 134.005 609.09 134 505 c 2,9,-1
 134 328 l 1,10,-1
 134 148 l 2,11,12
 134 34.6 134 34.6 228 -24 c 1,13,-1
 228 -136 l 1,14,15
 159 -102 159 -102 95 -26 c 0,16,17
 39.995 39.55 39.995 39.55 40 148 c 2,0,-1
EndSplineSet
EndChar

StartChar: parenright
Encoding: 41 41 12
Width: 295
Flags: W
VStem: 147 95<18.7065 604>
LayerCount: 2
Fore
SplineSet
242 150 m 2,0,1
 242 49.005 242 49.005 186.5 -23.5 c 128,-1,2
 131 -95.995 131 -95.995 53 -134 c 1,3,-1
 53 -22 l 1,4,5
 147.005 37.58 147.005 37.58 147 150 c 2,6,-1
 147 330 l 1,7,-1
 147 507 l 2,8,9
 147 611.775 147 611.775 53 675 c 1,10,-1
 53 778 l 1,11,12
 132.995 742 132.995 742 187.5 673 c 128,-1,13
 241.995 604 241.995 604 242 505 c 2,14,-1
 242 329 l 1,15,-1
 242 150 l 2,0,1
EndSplineSet
EndChar

StartChar: asterisk
Encoding: 42 42 13
Width: 212
Flags: W
HStem: 669.5 55<30.5393 60.3343 154.521 180.126>
VStem: 77.5 57<730.353 761.968>
LayerCount: 2
Fore
SplineSet
142.306 724.483 m 1,0,-1
 174 724.5 l 1,1,-1
 180.324 724.5 l 1,2,-1
 182.142 718.442 l 1,3,-1
 188.142 698.442 l 1,4,-1
 188.915 695.865 l 1,5,-1
 188.064 693.312 l 1,6,-1
 182.064 675.312 l 1,7,-1
 180.126 669.5 l 1,8,-1
 174 669.5 l 1,9,-1
 154.521 669.5 l 1,10,-1
 184.01 640.01 l 1,11,-1
 188.661 635.36 l 1,12,-1
 185.326 629.69 l 1,13,-1
 175.326 612.69 l 1,14,-1
 174.463 611.222 l 1,15,-1
 173.1 610.2 l 1,16,-1
 157.1 598.2 l 1,17,-1
 151.276 593.832 l 1,18,-1
 146.064 598.916 l 1,19,-1
 106.518 637.497 l 1,20,-1
 68.0104 598.99 l 1,21,-1
 63.0831 594.062 l 1,22,-1
 57.285 597.928 l 1,23,-1
 39.285 609.928 l 1,24,-1
 37.4946 611.121 l 1,25,-1
 36.4878 613.023 l 1,26,-1
 27.4878 630.023 l 1,27,-1
 24.4563 635.749 l 1,28,-1
 29.1744 640.19 l 1,29,-1
 60.3343 669.5 l 1,30,-1
 37 669.5 l 1,31,-1
 30.5393 669.5 l 1,32,-1
 28.8101 675.725 l 1,33,-1
 23.8101 693.725 l 1,34,-1
 23.1948 695.94 l 1,35,-1
 23.7799 698.163 l 1,36,-1
 28.7799 717.163 l 1,37,-1
 30.4474 723.5 l 1,38,-1
 37 723.5 l 1,39,-1
 70.6231 723.5 l 1,40,41
 72.0705 724.64 72.0705 724.64 74.0158 726.996 c 128,-1,42
 75.9339 729.319 75.9339 729.319 76.7732 730.921 c 0,43,44
 77.5 732.308 77.5 732.308 77.5 733 c 2,45,-1
 77.5 755 l 1,46,-1
 77.5 761.968 l 1,47,-1
 84.333 763.335 l 1,48,-1
 104.333 767.335 l 1,49,-1
 106 767.668 l 1,50,-1
 107.667 767.335 l 1,51,-1
 127.667 763.335 l 1,52,-1
 134.5 761.968 l 1,53,-1
 134.5 755 l 1,54,-1
 134.5 733 l 2,55,56
 134.706 731.16 134.706 731.16 136.166 729.404 c 0,57,58
 137.012 728.387 137.012 728.387 137.746 727.763 c 0,59,60
 141.67 724.431 141.67 724.431 142.306 724.483 c 1,0,-1
EndSplineSet
EndChar

StartChar: plus
Encoding: 43 43 14
Width: 495
Flags: W
HStem: 312.5 97<55.5 200.5 298.5 439.5>
VStem: 200.5 98<151.5 311.5 409.5 557.5>
LayerCount: 2
Fore
SplineSet
298.5 312.5 m 1,0,-1
 298.5 160 l 1,1,-1
 298.5 151.5 l 1,2,-1
 290 151.5 l 1,3,-1
 209 151.5 l 1,4,-1
 200.5 151.5 l 1,5,-1
 200.5 160 l 1,6,-1
 200.5 311.5 l 1,7,-1
 64 311.5 l 1,8,-1
 55.5 311.5 l 1,9,-1
 55.5 320 l 1,10,-1
 55.5 398 l 1,11,-1
 55.5 406.5 l 1,12,-1
 64 406.5 l 1,13,-1
 200.5 406.5 l 1,14,-1
 200.5 549 l 1,15,-1
 200.5 557.5 l 1,16,-1
 209 557.5 l 1,17,-1
 289 557.5 l 1,18,-1
 297.5 557.5 l 1,19,-1
 297.5 549 l 1,20,-1
 297.5 409.5 l 1,21,-1
 431 409.5 l 1,22,-1
 439.5 409.5 l 1,23,-1
 439.5 401 l 1,24,-1
 439.5 321 l 1,25,-1
 439.5 312.5 l 1,26,-1
 431 312.5 l 1,27,-1
 298.5 312.5 l 1,0,-1
EndSplineSet
EndChar

StartChar: comma
Encoding: 44 44 15
Width: 154
Flags: W
LayerCount: 2
Fore
SplineSet
31.9151 116.658 m 0,0,1
 51.8129 134 51.8129 134 76.4883 134 c 2,2,-1
 76.5023 134 l 2,3,4
 101.123 134 101.123 134 121.496 116.734 c 0,5,6
 142.5 98.9332 142.5 98.9332 142.5 66 c 0,7,8
 142.5 43.9479 142.5 43.9479 132.559 24.6134 c 0,9,10
 123.273 6.55058 123.273 6.55058 114.875 -4.99878 c 0,11,12
 106.23 -16.8876 106.23 -16.8876 86.8541 -32.6017 c 128,-1,13
 67.6372 -48.1869 67.6372 -48.1869 62.7994 -50.6036 c 0,14,15
 59.1759 -52.4137 59.1759 -52.4137 43.505 -62.208 c 2,16,-1
 -1.45268 -90.3066 l 1,17,-1
 32.4674 -49.5616 l 2,18,19
 37.001 -44.1159 37.001 -44.1159 42.6199 -34.2828 c 0,20,21
 48.3687 -24.2225 48.3687 -24.2225 53.7215 -12.073 c 0,22,23
 58.9736 -0.151982 58.9736 -0.151982 61.8271 9.83516 c 0,24,25
 63.3948 15.3222 63.3948 15.3222 63.687 19.1375 c 1,26,27
 59.1894 18.1117 59.1894 18.1117 54.8241 18.1117 c 0,28,29
 39.8174 18.1117 39.8174 18.1117 27.6029 29.8784 c 0,30,31
 11.5 45.3909 11.5 45.3909 11.5 69 c 0,32,33
 11.5 98.8646 11.5 98.8646 31.9151 116.658 c 0,0,1
EndSplineSet
EndChar

StartChar: hyphen
Encoding: 45 45 16
Width: 388
Flags: W
HStem: 213.5 98<40.5 446.5>
LayerCount: 2
Fore
SplineSet
318.5 213.5 m 1,0,-1
 40.5 213.5 l 1,1,-1
 40.5 311.5 l 1,2,-1
 318.5 311.5 l 1,3,-1
 318.5 213.5 l 1,0,-1
EndSplineSet
EndChar

StartChar: period
Encoding: 46 46 17
Width: 190
Flags: W
LayerCount: 2
Fore
SplineSet
27.4027 109.147 m 0,0,1
 47.8063 127 47.8063 127 73 127 c 128,-1,2
 98.0309 127 98.0309 127 118.386 110.325 c 0,3,4
 139.5 93.0299 139.5 93.0299 139.5 62 c 0,5,6
 139.5 29.2638 139.5 29.2638 118.744 10.2346 c 0,7,8
 98.3095 -8.5 98.3095 -8.5 73 -8.5 c 128,-1,9
 47.7683 -8.5 47.7683 -8.5 27.3529 9.64702 c 0,10,11
 6.5 28.1829 6.5 28.1829 6.5 60 c 0,12,13
 6.5 90.857 6.5 90.857 27.4027 109.147 c 0,0,1
EndSplineSet
EndChar

StartChar: slash
Encoding: 47 47 18
Width: 360
Flags: W
VStem: -10.4293 378.776<-8.5 712.5>
LayerCount: 2
Fore
SplineSet
2 -8.5 m 1,0,-1
 -10.4293 -8.5 l 1,1,-1
 -5.92119 3.08297 l 1,2,-1
 268.079 707.083 l 1,3,-1
 270.187 712.5 l 1,4,-1
 276 712.5 l 1,5,-1
 356 712.5 l 1,6,-1
 368.347 712.5 l 1,7,-1
 363.94 700.966 l 1,8,-1
 94.9401 -3.03393 l 1,9,-1
 92.8515 -8.5 l 1,10,-1
 87 -8.5 l 1,11,-1
 2 -8.5 l 1,0,-1
EndSplineSet
EndChar

StartChar: zero
Encoding: 48 48 19
Width: 563
Flags: W
HStem: -10.4121 81.9824<196.494 345.958> 637.586 81.9824<196.494 345.958>
VStem: 29.0312 485.156<169.772 210.457 190.052 190.052>
LayerCount: 2
Fore
SplineSet
428.442 509.053 m 1,0,1
 417.24 564.476 417.24 564.476 373.021 601.03 c 128,-1,2
 328.801 637.586 328.801 637.586 271.609 637.586 c 0,3,4
 213.828 637.586 213.828 637.586 169.903 601.03 c 128,-1,5
 125.979 564.476 125.979 564.476 114.775 509.053 c 1,6,7
 84.7061 354.578 84.7061 354.578 114.775 201.282 c 1,8,9
 125.979 144.091 125.979 144.091 169.903 107.83 c 128,-1,10
 213.828 71.5703 213.828 71.5703 271.609 71.5703 c 0,11,12
 328.801 71.5703 328.801 71.5703 373.021 107.83 c 128,-1,13
 417.24 144.091 417.24 144.091 428.442 201.282 c 1,14,15
 456.743 354.578 456.743 354.578 428.442 509.053 c 1,0,1
514.188 190.052 m 1,16,17
 497.342 102.454 497.342 102.454 428.836 46.0205 c 128,-1,18
 360.33 -10.4121 360.33 -10.4121 271.609 -10.4121 c 0,19,20
 182.327 -10.4121 182.327 -10.4121 113.541 46.0205 c 128,-1,21
 44.7539 102.454 44.7539 102.454 29.0312 190.052 c 1,22,23
 -2.41406 354.578 -2.41406 354.578 29.0312 519.104 c 1,24,25
 44.7539 606.702 44.7539 606.702 113.541 663.135 c 128,-1,26
 182.327 719.568 182.327 719.568 271.609 719.568 c 0,27,28
 360.33 719.568 360.33 719.568 428.836 663.135 c 128,-1,29
 497.342 606.702 497.342 606.702 514.188 519.104 c 1,30,31
 545.633 354.578 545.633 354.578 514.188 190.052 c 1,16,17
EndSplineSet
EndChar

StartChar: one
Encoding: 49 49 20
Width: 200
Flags: W
HStem: 0 21G<76.5 156.5>
VStem: 76.5 80<0 510.18>
LayerCount: 2
Fore
SplineSet
76.5 510.18 m 1,0,-1
 52.0996 483.9 l 1,1,-1
 -12.2197 540.97 l 1,2,-1
 156.5 724.67 l 1,3,-1
 156.5 0 l 1,4,-1
 76.5 0 l 1,5,-1
 76.5 510.18 l 1,0,-1
EndSplineSet
EndChar

StartChar: two
Encoding: 50 50 21
Width: 464
Flags: W
HStem: 0 81<142.648 419.81> 626.5 81.5<168.796 269.185>
VStem: 334.5 74.3213<497.057 564.223>
LayerCount: 2
Fore
SplineSet
228 626.5 m 0,0,1
 165.289 626.5 165.289 626.5 112.328 542.717 c 1,2,-1
 62.5107 601.492 l 1,3,4
 110.133 660.406 110.133 660.406 146.631 684.203 c 128,-1,5
 183.13 708 183.13 708 230.909 708 c 0,6,7
 264.809 708 264.809 708 295.324 697.985 c 128,-1,8
 325.84 687.971 325.84 687.971 351.914 667.516 c 128,-1,9
 377.987 647.062 377.987 647.062 393.404 611.057 c 128,-1,10
 408.821 575.052 408.821 575.052 408.821 527.801 c 0,11,12
 408.821 485.32 408.821 485.32 392.135 450.232 c 128,-1,13
 375.448 415.145 375.448 415.145 307.7 317.904 c 2,14,-1
 142.648 81 l 1,15,-1
 419.81 81 l 1,16,-1
 419.81 0 l 1,17,-1
 -14.5547 0 l 1,18,-1
 266.092 397.108 l 2,19,20
 314.897 466.256 314.897 466.256 324.699 486.093 c 128,-1,21
 334.5 505.931 334.5 505.931 334.5 535.51 c 0,22,23
 334.5 549.554 334.5 549.554 329.68 563.832 c 128,-1,24
 324.859 578.11 324.859 578.11 313.93 592.986 c 128,-1,25
 302.999 607.861 302.999 607.861 280.733 617.181 c 128,-1,26
 258.467 626.5 258.467 626.5 228 626.5 c 0,0,1
EndSplineSet
EndChar

StartChar: three
Encoding: 51 51 22
Width: 482
Flags: W
HStem: -13 84<105.139 377.9> 615 77<31 293>
VStem: 332 83<30.2 407.2>
LayerCount: 2
Fore
SplineSet
332 207 m 0,0,1
 332 361 332 361 170 361 c 0,2,-1
 107 361 l 1,3,-1
 293 615 l 1,4,-1
 31 615 l 1,5,-1
 31 692 l 1,6,-1
 438 692 l 1,7,-1
 242 420 l 1,8,9
 415 391 415 391 415 209 c 0,10,11
 415 -13 415 -13 173 -13 c 0,12,13
 85.2402 -13 85.2402 -13 5 43 c 1,14,-1
 53 111 l 1,15,16
 122.184 71 122.184 71 179 71 c 0,17,18
 332 71 332 71 332 207 c 0,0,1
EndSplineSet
EndChar

StartChar: four
Encoding: 52 52 23
Width: 497
Flags: W
HStem: 0 21G<286.5 369.19> 157.5 79.4004<124.06 286.5 369.19 453.18>
VStem: 288.51 79.71<0 157.49 237.91 361.52>
LayerCount: 2
Fore
SplineSet
348.99 719.52 m 1,0,-1
 410.43 676.17 l 1,1,-1
 124.06 236.9 l 1,2,-1
 288.51 236.9 l 1,3,-1
 288.51 361.52 l 1,4,-1
 368.22 489.52 l 1,5,-1
 368.22 237.91 l 1,6,-1
 453.18 237.91 l 1,7,-1
 453.18 157.49 l 1,8,-1
 369.19 157.49 l 1,9,-1
 369.19 0 l 1,10,-1
 286.5 0 l 1,11,-1
 286.5 157.5 l 1,12,-1
 -22 157.5 l 1,13,-1
 348.99 719.52 l 1,0,-1
EndSplineSet
EndChar

StartChar: five
Encoding: 53 53 24
Width: 438
Flags: W
HStem: -11.0996 82.3672<118.013 256.83> 358.303 72.3672<108.93 245.383> 616.66 79.3398<134.13 341.92>
VStem: 311.969 81.8311<136.827 293.214>
LayerCount: 2
Fore
SplineSet
311.969 210.529 m 0,0,1
 311.969 274.133 311.969 274.133 269.733 316.218 c 128,-1,2
 227.498 358.303 227.498 358.303 167.882 358.303 c 2,3,-1
 21.9717 358.303 l 1,4,-1
 62.7695 696 l 1,5,-1
 63.8604 696 l 1,6,-1
 62.7695 696 l 1,7,-1
 341.92 696 l 1,8,-1
 341.92 616.66 l 1,9,-1
 134.13 616.66 l 1,10,-1
 108.93 430.67 l 1,11,-1
 164.6 430.67 l 2,12,13
 269.792 430.67 269.792 430.67 327.83 372.21 c 0,14,15
 393.8 305.745 393.8 305.745 393.8 210.78 c 0,16,17
 393.8 114.998 393.8 114.998 335.562 51.9492 c 128,-1,18
 277.325 -11.0996 277.325 -11.0996 173.69 -11.0996 c 0,19,20
 86.0898 -11.0996 86.0898 -11.0996 22.6602 43.3604 c 1,21,-1
 84.7852 106.305 l 1,22,23
 130.653 71.2676 130.653 71.2676 172.787 71.2676 c 0,24,25
 237.436 71.2676 237.436 71.2676 274.703 112.551 c 128,-1,26
 311.969 153.835 311.969 153.835 311.969 210.529 c 0,0,1
EndSplineSet
EndChar

StartChar: six
Encoding: 54 54 25
Width: 477
VWidth: 990
Flags: W
HStem: -9.34863 80.2949<137.353 289.002> 351.209 80.8516<167.698 294.236>
VStem: -5.79688 77.8975<130.994 268.474> 218.739 84.1201<628.957 713.077> 354.783 79.502<131.035 287.264>
LayerCount: 2
Fore
SplineSet
214.265 -9.34863 m 128,-1,1
 124.026 -9.34863 124.026 -9.34863 59.1143 53.9658 c 128,-1,2
 -5.79688 117.279 -5.79688 117.279 -5.79688 211.334 c 0,3,4
 -5.79688 255.288 -5.79688 255.288 23 314 c 2,5,-1
 218.739 713.077 l 1,6,-1
 302.859 713.077 l 1,7,-1
 155.524 421.357 l 1,8,9
 178.444 432.061 178.444 432.061 214.265 432.061 c 0,10,11
 304.513 432.061 304.513 432.061 369.399 368.752 c 128,-1,12
 434.285 305.444 434.285 305.444 434.285 211.334 c 128,-1,13
 434.285 117.244 434.285 117.244 369.385 53.9482 c 128,-1,0
 304.482 -9.34863 304.482 -9.34863 214.265 -9.34863 c 128,-1,1
111.628 312.823 m 128,-1,15
 72.1006 274.44 72.1006 274.44 72.1006 212.072 c 128,-1,16
 72.1006 149.704 72.1006 149.704 113.476 110.326 c 128,-1,17
 154.851 70.9463 154.851 70.9463 213.177 70.9463 c 128,-1,18
 271.504 70.9463 271.504 70.9463 313.144 110.004 c 128,-1,19
 354.783 149.062 354.783 149.062 354.783 209.149 c 128,-1,20
 354.783 269.237 354.783 269.237 315.18 310.224 c 128,-1,21
 275.573 351.209 275.573 351.209 213.365 351.209 c 128,-1,14
 151.157 351.209 151.157 351.209 111.628 312.823 c 128,-1,15
EndSplineSet
EndChar

StartChar: seven
Encoding: 55 55 26
Width: 453
Flags: W
HStem: 0 21G<-2 86> 609 81<24 280>
VStem: -2 88<0 88>
LayerCount: 2
Fore
SplineSet
24 690 m 1,0,-1
 409 690 l 1,1,-1
 86 0 l 1,2,-1
 -2 0 l 1,3,-1
 280 609 l 1,4,-1
 24 609 l 1,5,-1
 24 690 l 1,0,-1
EndSplineSet
EndChar

StartChar: eight
Encoding: 56 56 27
Width: 488
Flags: W
HStem: -3.47656 78.5215<159.653 303.143> 342.405 53.3877<168.82 289.984> 623.317 81.0791<168.814 289.99>
VStem: 14.7715 83.3506<136.78 280.672> 31.2256 85.624<449.631 571.158> 341.98 80.373<449.623 571.149> 364.718 81.3906<136.809 280.657>
LayerCount: 2
Fore
SplineSet
226.784 704.396 m 128,-1,1
 307.752 704.396 307.752 704.396 365.053 646.92 c 128,-1,2
 422.354 589.457 422.354 589.457 422.354 510.965 c 128,-1,3
 422.354 432.481 422.354 432.481 371.55 376.41 c 1,4,5
 446.109 311.627 446.109 311.627 446.108 217.454 c 128,-1,6
 446.108 123.287 446.108 123.287 382.918 59.9102 c 128,-1,7
 319.723 -3.47656 319.723 -3.47656 230.44 -3.47656 c 128,-1,8
 141.152 -3.47656 141.152 -3.47656 77.9619 59.9102 c 128,-1,9
 14.7676 123.281 14.7676 123.281 14.7715 215.857 c 128,-1,10
 14.7715 308.422 14.7715 308.422 85.3018 372.833 c 1,11,12
 31.2217 429.648 31.2217 429.648 31.2256 509.553 c 128,-1,13
 31.2256 589.448 31.2256 589.448 88.5264 646.92 c 128,-1,0
 145.812 704.396 145.812 704.396 226.784 704.396 c 128,-1,1
229.399 623.317 m 128,-1,15
 182.795 623.317 182.795 623.317 149.83 590.221 c 128,-1,16
 116.85 557.132 116.85 557.132 116.85 510.379 c 128,-1,17
 116.85 463.649 116.85 463.649 149.819 429.718 c 128,-1,18
 182.8 395.793 182.8 395.793 229.399 395.793 c 128,-1,19
 276.003 395.793 276.003 395.793 309 429.718 c 128,-1,20
 341.979 463.644 341.979 463.644 341.98 510.379 c 128,-1,21
 341.98 557.125 341.98 557.125 308.989 590.221 c 128,-1,14
 276.008 623.312 276.008 623.312 229.399 623.317 c 128,-1,15
231.399 342.405 m 128,-1,23
 176.209 342.405 176.209 342.405 137.172 303.24 c 128,-1,24
 98.1279 264.07 98.1279 264.07 98.1221 208.73 c 128,-1,25
 98.1221 153.384 98.1221 153.384 137.172 114.209 c 128,-1,26
 176.21 75.0449 176.21 75.0449 231.399 75.0449 c 128,-1,27
 286.587 75.0449 286.587 75.0449 325.646 114.209 c 128,-1,28
 364.718 153.406 364.718 153.406 364.718 208.73 c 128,-1,29
 364.718 264.059 364.718 264.059 325.646 303.24 c 128,-1,22
 286.588 342.412 286.588 342.412 231.399 342.405 c 128,-1,23
EndSplineSet
EndChar

StartChar: nine
Encoding: 57 57 28
Width: 448
VWidth: 990
Flags: W
HStem: 0 21G<117.629 201.749> 304.365 81.666<135.98 249.34> 631.875 81.2021<140.709 273.733>
VStem: 2.50195 80.4258<442.351 579.392> 117.629 84.1201<0 84.1201> 330.896 79.0898<453.67 579.302>
LayerCount: 2
Fore
SplineSet
206.225 713.077 m 132,-1,1
 289.779 713.077 289.779 713.077 349.883 654.453 c 132,-1,2
 409.986 595.829 409.986 595.829 409.986 508.741 c 4,3,4
 409.986 466.379 409.986 466.379 401.402 447.153 c 6,5,-1
 201.749 0 l 5,6,-1
 117.629 0 l 5,7,-1
 260.614 314.275 l 5,8,9
 239.391 304.365 239.391 304.365 206.225 304.365 c 4,10,11
 122.662 304.365 122.662 304.365 62.582 362.984 c 132,-1,12
 2.50195 421.602 2.50195 421.602 2.50195 508.741 c 132,-1,13
 2.50195 595.862 2.50195 595.862 62.5957 654.47 c 132,-1,0
 122.69 713.077 122.69 713.077 206.225 713.077 c 132,-1,1
330.896 507.75 m 4,14,15
 330.896 562.79 330.896 562.79 294.602 597.332 c 132,-1,16
 258.308 631.875 258.308 631.875 206.891 631.875 c 4,17,18
 155.981 631.875 155.981 631.875 119.455 597.614 c 132,-1,19
 82.9277 563.352 82.9277 563.352 82.9277 509.884 c 4,20,21
 82.9277 457.936 82.9277 457.936 117.669 421.983 c 132,-1,22
 152.411 386.031 152.411 386.031 207.183 386.031 c 4,23,24
 261.549 386.031 261.549 386.031 296.222 419.702 c 132,-1,25
 330.896 453.372 330.896 453.372 330.896 507.75 c 4,14,15
EndSplineSet
EndChar

StartChar: colon
Encoding: 58 58 29
Width: 196
VWidth: 1220
Flags: W
VStem: 26.8398 142.74<47.9542 134.322 457.378 538.616>
LayerCount: 2
Fore
SplineSet
26.8398 498.98 m 0,0,1
 26.8398 529.469 26.8398 529.469 49.4102 548.085 c 128,-1,2
 71.9668 566.69 71.9668 566.69 98.21 566.69 c 128,-1,3
 124.446 566.69 124.446 566.69 147.01 549.305 c 128,-1,4
 169.574 531.92 169.574 531.92 169.58 500.2 c 0,5,6
 169.58 467.26 169.58 467.26 147.01 448.35 c 128,-1,7
 124.438 429.44 124.438 429.44 98.21 429.44 c 128,-1,8
 71.9736 429.44 71.9736 429.44 49.4102 447.74 c 128,-1,9
 26.8457 466.04 26.8457 466.04 26.8398 498.98 c 0,0,1
25.6201 91.5 m 0,10,11
 25.6201 124.44 25.6201 124.44 47.5801 143.655 c 128,-1,12
 69.54 162.87 69.54 162.87 96.3799 162.87 c 128,-1,13
 123.213 162.87 123.213 162.87 145.18 144.875 c 128,-1,14
 167.14 126.886 167.14 126.886 167.14 93.9404 c 0,15,16
 167.14 58.5664 167.14 58.5664 145.18 38.4297 c 128,-1,17
 123.22 18.2998 123.22 18.2998 96.3799 18.2998 c 128,-1,18
 69.54 18.2998 69.54 18.2998 47.5801 37.8203 c 128,-1,19
 25.6201 57.3398 25.6201 57.3398 25.6201 91.5 c 0,10,11
EndSplineSet
EndChar

StartChar: semicolon
Encoding: 59 59 30
Width: 187
VWidth: 1220
Flags: W
LayerCount: 2
Fore
SplineSet
20.7402 505.08 m 128,-1,1
 20.7402 536.794 20.7402 536.794 42.7002 555.1 c 128,-1,2
 64.6602 573.4 64.6602 573.4 91.5 573.4 c 128,-1,3
 118.34 573.4 118.34 573.4 140.3 556.32 c 128,-1,4
 162.26 539.24 162.26 539.24 162.26 507.52 c 0,5,6
 162.26 474.58 162.26 474.58 140.3 455.67 c 128,-1,7
 118.333 436.76 118.333 436.76 91.5 436.76 c 128,-1,8
 64.6602 436.76 64.6602 436.76 42.7002 455.06 c 128,-1,0
 20.7402 473.36 20.7402 473.36 20.7402 505.08 c 128,-1,1
26.8398 112.24 m 0,9,10
 26.8398 142.74 26.8398 142.74 48.7998 161.955 c 128,-1,11
 70.7598 181.17 70.7598 181.17 96.9902 181.17 c 128,-1,12
 123.214 181.17 123.214 181.17 144.57 161.955 c 128,-1,13
 165.926 142.74 165.926 142.74 165.92 107.36 c 0,14,15
 165.92 84.1729 165.92 84.1729 155.55 61 c 128,-1,16
 145.18 37.8291 145.18 37.8291 135.42 25.0098 c 128,-1,17
 125.655 12.1865 125.655 12.1865 102.48 -4.87988 c 2,18,-1
 75.0303 -25.0098 l 2,19,20
 70.833 -28.0176 70.833 -28.0176 50.0195 -39.04 c 1,21,22
 56.1201 -32.9404 56.1201 -32.9404 63.4404 -19.5195 c 128,-1,23
 70.7041 -6.20801 70.7041 -6.20801 77.4697 8.54004 c 128,-1,24
 84.1865 23.1797 84.1865 23.1797 88.4502 35.9902 c 128,-1,25
 92.7178 48.8105 92.7178 48.8105 90.8896 56.1201 c 128,-1,26
 89.0615 63.4326 89.0615 63.4326 80.5195 61 c 0,27,28
 61.0049 56.1162 61.0049 56.1162 43.9199 71.3701 c 128,-1,29
 26.8398 86.6191 26.8398 86.6191 26.8398 112.24 c 0,9,10
EndSplineSet
EndChar

StartChar: less
Encoding: 60 60 31
Width: 597
VWidth: 1220
Flags: W
HStem: 165.92 97.6<446.52 544.12> 629.52 97.6<452.62 550.22>
LayerCount: 2
Fore
SplineSet
550.22 727.12 m 1,0,-1
 550.22 629.52 l 1,1,-1
 192.76 452.62 l 1,2,-1
 544.12 263.52 l 1,3,-1
 544.12 165.92 l 1,4,-1
 7.32031 456.28 l 1,5,-1
 550.22 727.12 l 1,0,-1
EndSplineSet
EndChar

StartChar: equal
Encoding: 61 61 32
Width: 811
VWidth: 1220
Flags: W
HStem: 244 107.36<139.08 678.32> 534.36 107.36<136.64 673.44>
LayerCount: 2
Fore
SplineSet
139.08 351.36 m 1,0,-1
 678.32 351.36 l 1,1,-1
 678.32 244 l 1,2,-1
 136.64 244 l 1,3,-1
 139.08 351.36 l 1,0,-1
134.2 641.72 m 1,4,-1
 673.44 641.72 l 1,5,-1
 673.44 534.36 l 1,6,-1
 136.64 534.36 l 1,7,-1
 134.2 641.72 l 1,4,-1
EndSplineSet
EndChar

StartChar: greater
Encoding: 62 62 33
Width: 597
VWidth: 1220
Flags: W
HStem: 165.92 97.6<57.3398 154.94> 629.52 97.6<51.2402 148.84>
LayerCount: 2
Fore
SplineSet
51.2402 727.12 m 1,0,-1
 594.14 456.28 l 1,1,-1
 57.3398 165.92 l 1,2,-1
 57.3398 263.52 l 1,3,-1
 408.7 452.62 l 1,4,-1
 51.2402 629.52 l 1,5,-1
 51.2402 727.12 l 1,0,-1
EndSplineSet
EndChar

StartChar: question
Encoding: 63 63 34
Width: 401
Flags: W
HStem: 663.5 94<91.6482 283.094>
VStem: 94.5 105<211.5 308.683> 269.5 99<510.729 677.959>
LayerCount: 2
Fore
SplineSet
-2.52854 679.949 m 1,0,1
 63.8255 757.5 63.8255 757.5 176 757.5 c 0,2,3
 258.38 757.5 258.38 757.5 313.44 705.042 c 128,-1,4
 368.5 652.584 368.5 652.584 368.5 568 c 0,5,6
 368.5 523.945 368.5 523.945 350.279 488.513 c 128,-1,7
 332.059 453.081 332.059 453.081 289.148 408.131 c 2,8,-1
 247.149 364.131 l 2,9,10
 212.092 327.399 212.092 327.399 205.796 307.557 c 128,-1,11
 199.5 287.715 199.5 287.715 199.5 237 c 2,12,-1
 196.559 211.5 l 1,13,-1
 94.5 211.5 l 1,14,-1
 94.5 248 l 2,15,16
 94.5 307.983 94.5 307.983 110.384 340.22 c 128,-1,17
 126.269 372.458 126.269 372.458 166.76 415.771 c 2,18,-1
 209.756 462.768 l 2,19,20
 213.495 466.776 213.495 466.776 224.594 477.259 c 0,21,22
 269.5 519.672 269.5 519.672 269.5 558 c 0,23,24
 269.5 663.5 269.5 663.5 163 663.5 c 0,25,26
 108.114 663.5 108.114 663.5 82.97 633.987 c 0,27,28
 71.3696 620.371 71.3696 620.371 56.202 604.187 c 2,29,-1
 48.5542 596.027 l 1,30,-1
 -2.52854 679.949 l 1,0,1
79.5 59.5 m 128,-1,32
 79.5 90.8547 79.5 90.8547 100.152 108.927 c 128,-1,33
 120.804 127 120.804 127 146 127 c 128,-1,34
 171.031 127 171.031 127 191.765 110.015 c 128,-1,35
 212.5 93.0298 212.5 93.0298 212.5 61.1439 c 128,-1,36
 212.5 29.2579 212.5 29.2579 191.902 10.3789 c 128,-1,37
 171.303 -8.5 171.303 -8.5 146 -8.5 c 128,-1,38
 120.765 -8.5 120.765 -8.5 100.132 9.84298 c 128,-1,31
 79.5 28.186 79.5 28.186 79.5 59.5 c 128,-1,32
EndSplineSet
EndChar

StartChar: at
Encoding: 64 64 35
Width: 905
Flags: W
HStem: 18 68<372.012 531.204> 197.5 66.5<418.39 489.793> 475.5 64<420.458 489.814> 638 72<377.893 539.127>
VStem: 98 77<298.007 499.507> 274 73<323.1 412.793> 535.5 63.5<315.003 407.022> 750 71<301.939 471.1>
LayerCount: 2
Fore
SplineSet
695 90 m 1,0,1
 665 70.995 665 70.995 647.5 61.5 c 128,-1,2
 629.952 51.9818 629.952 51.9818 598.5 40 c 128,-1,3
 566.978 27.9914 566.978 27.9914 528.5 23 c 128,-1,4
 489.956 18 489.956 18 438 18 c 0,5,6
 372.986 18 372.986 18 316 38.5 c 128,-1,7
 259 59.005 259 59.005 220 92.5 c 128,-1,8
 181 125.995 181 125.995 152.5 169 c 128,-1,9
 124.004 211.999 124.004 211.999 111 258 c 128,-1,10
 98 304 98 304 98 350 c 0,11,12
 98 489.005 98 489.005 182 590 c 0,13,14
 227 644 227 644 306 677 c 128,-1,15
 385 710 385 710 464 710 c 0,16,17
 537.005 710 537.005 710 605 689 c 128,-1,18
 672.995 668 672.995 668 715 632 c 0,19,20
 769 584 769 584 795 516 c 128,-1,21
 821 448 821 448 821 371 c 0,22,23
 821 314 821 314 808 280.5 c 128,-1,24
 794.995 247.005 794.995 247.005 754 210 c 0,25,26
 720 181 720 181 674 174 c 128,-1,27
 627.995 166.995 627.995 166.995 590 181.5 c 128,-1,28
 552.005 196.005 552.005 196.005 537 226 c 1,29,30
 501 197.5 501 197.5 455.5 197.5 c 128,-1,31
 410.005 197.5 410.005 197.5 370 211.75 c 128,-1,32
 330.008 225.995 330.008 225.995 302 266.5 c 128,-1,33
 273.995 307 273.995 307 274 363 c 0,34,35
 274 406.995 274 406.995 288.5 442.5 c 128,-1,36
 303.004 478.002 303.004 478.002 328 498.5 c 128,-1,37
 353.012 519.011 353.012 519.011 384 529.25 c 128,-1,38
 415.005 539.495 415.005 539.495 448.5 539.5 c 128,-1,39
 482.015 539.5 482.015 539.5 511 525 c 0,40,41
 529 516 529 516 536 504 c 1,42,-1
 536 535 l 1,43,-1
 609 535 l 1,44,-1
 609 467 l 2,45,46
 609 427.022 609 427.022 604 404.5 c 128,-1,47
 599 381.978 599 381.978 599 347.5 c 128,-1,48
 599 313 599 313 605 277 c 1,49,50
 614 250 614 250 651 244 c 128,-1,51
 688.005 238 688.005 238 712 262 c 0,52,53
 737.012 287.012 737.012 287.012 743.5 303 c 128,-1,54
 750 319.017 750 319.017 750 367 c 0,55,56
 750 494.995 750 494.995 670 571 c 0,57,58
 635.995 603.31 635.995 603.31 579.5 620.5 c 0,59,60
 522.021 638 522.021 638 465 638 c 0,61,62
 397.995 638 397.995 638 333 612 c 128,-1,63
 268 586 268 586 234 542 c 0,64,65
 175.005 465.005 175.005 465.005 175 350 c 0,66,67
 175 310.005 175 310.005 193 265.5 c 128,-1,68
 210.997 221.003 210.997 221.003 243.5 181 c 0,69,70
 279.5 136.69 279.5 136.69 327.5 113.5 c 0,71,72
 387.24 84.6346 387.24 84.6346 438 86 c 0,73,74
 475 87 475 87 505 87 c 128,-1,75
 535.014 87 535.014 87 554.5 94 c 0,76,77
 574.227 101.087 574.227 101.087 591 108 c 0,78,79
 608 115 608 115 620 123 c 2,80,-1
 646 140 l 1,81,-1
 695 90 l 1,0,1
347 366 m 0,82,83
 347 333 347 333 363.5 307.5 c 128,-1,84
 380.002 281.998 380.002 281.998 405 273 c 128,-1,85
 430.005 264 430.005 264 456 264 c 128,-1,86
 481.995 264 481.995 264 504 281 c 0,87,88
 531 301 531 301 534 327 c 0,89,90
 535.5 337.995 535.5 337.995 535.5 368.5 c 128,-1,91
 535.5 398.995 535.5 398.995 534 409 c 1,92,93
 525 439 525 439 503.5 457.25 c 128,-1,94
 482.011 475.5 482.011 475.5 456 475.5 c 128,-1,95
 430.005 475.5 430.005 475.5 405 465.25 c 128,-1,96
 380.002 455.008 380.002 455.008 363.5 428.5 c 128,-1,97
 347 401.995 347 401.995 347 366 c 0,82,83
EndSplineSet
EndChar

StartChar: A
Encoding: 65 65 36
Width: 676
Flags: W
HStem: 166.5 88<181.452 425.218>
LayerCount: 2
Fore
SplineSet
632.229 -4.3623 m 1,0,-1
 556.909 -46.7861 l 1,1,-1
 556.235 -48.1465 l 1,2,-1
 458.53 166.5 l 1,3,-1
 149.529 166.5 l 1,4,-1
 54.3027 -48.2666 l 1,5,-1
 -22.0674 -4.33105 l 1,6,-1
 296.577 752.83 l 1,7,-1
 632.229 -4.3623 l 1,0,-1
425.218 254.5 m 5,8,-1
 298.274 529.366 l 1,9,-1
 181.452 254.5 l 1,10,-1
 425.218 254.5 l 5,8,-1
EndSplineSet
EndChar

StartChar: B
Encoding: 66 66 37
Width: 495
Flags: W
HStem: -8.5 91.4746<115.743 325.551> 315.025 98.6992<116.941 269.412> 614.275 80.2109<116.941 275.856>
VStem: 32.5 84.4414<82.9746 315.025 413.725 614.275> 323.393 74.7705<451.8 560.252> 372.539 78.4609<119.295 271.51>
LayerCount: 2
Fore
SplineSet
398.163 518.318 m 0,0,1
 398.163 433.928 398.163 433.928 332.312 389.185 c 1,2,3
 362.933 382.721 362.933 382.721 393.704 354.705 c 0,4,5
 451 302.536 451 302.536 451 186.5 c 0,6,7
 451 134.804 451 134.804 426.688 90.8828 c 128,-1,8
 402.292 46.8164 402.292 46.8164 354.243 19.1348 c 128,-1,9
 306.275 -8.5 306.275 -8.5 242.023 -8.5 c 2,10,-1
 32.5 -8.5 l 1,11,-1
 32.5 694.486 l 1,12,-1
 220.594 694.486 l 1,13,14
 265.952 694.486 265.952 694.486 303.266 676.385 c 0,15,16
 373.661 642.238 373.661 642.238 392.766 562.48 c 0,17,18
 398.163 539.95 398.163 539.95 398.163 518.318 c 0,0,1
116.941 614.275 m 1,19,-1
 116.941 413.725 l 1,20,-1
 240.616 413.725 l 2,21,22
 269.412 413.725 269.412 413.725 296.402 440.13 c 128,-1,23
 323.393 466.535 323.393 466.535 323.393 515.652 c 128,-1,24
 323.393 564.77 323.393 564.77 285.489 594.667 c 0,25,26
 260.632 614.275 260.632 614.275 209.886 614.275 c 2,27,-1
 116.941 614.275 l 1,19,-1
115.743 315.025 m 1,28,-1
 115.743 82.9746 l 1,29,-1
 282.468 82.9746 l 2,30,31
 319.768 82.9746 319.768 82.9746 346.153 108.826 c 128,-1,32
 372.539 134.677 372.539 134.677 372.539 194.17 c 128,-1,33
 372.539 253.662 372.539 253.662 332.055 291.151 c 0,34,35
 306.272 315.025 306.272 315.025 270.918 315.025 c 2,36,-1
 115.743 315.025 l 1,28,-1
EndSplineSet
EndChar

StartChar: C
Encoding: 67 67 38
Width: 664
Flags: W
HStem: -26.0898 74.4824<242.305 541.405> 648.076 74.2734<233.451 518.322>
VStem: 3.83984 90.8203<217.736 481.038>
LayerCount: 2
Fore
SplineSet
629.234 81.8809 m 1,0,1
 523.446 -26.0898 523.446 -26.0898 371.511 -26.0898 c 0,2,3
 272.122 -26.0898 272.122 -26.0898 187.121 24.3613 c 128,-1,4
 102.12 74.8125 102.12 74.8125 52.9795 161.462 c 128,-1,5
 3.83984 248.112 3.83984 248.112 3.83984 349.365 c 128,-1,6
 3.83984 450.652 3.83984 450.652 47.5547 534.338 c 128,-1,7
 91.2686 618.024 91.2686 618.024 179.903 670.188 c 128,-1,8
 268.537 722.35 268.537 722.35 385.49 722.35 c 1,9,-1
 386.764 722.35 l 1,10,11
 518.322 722.35 518.322 722.35 620.541 627.597 c 1,12,-1
 568.754 572.223 l 5,13,14
 512.41 648.076 512.41 648.076 389.529 648.076 c 132,-1,15
 266.649 648.076 266.649 648.076 180.653 560.288 c 132,-1,16
 94.6602 472.499 94.6602 472.499 94.6602 348.12 c 132,-1,17
 94.6602 223.741 94.6602 223.741 180.246 136.067 c 132,-1,18
 265.832 48.3926 265.832 48.3926 385.678 48.3926 c 132,-1,19
 505.468 48.3926 505.468 48.3926 575.524 135.436 c 6,20,-1
 582.621 144.253 l 5,21,-1
 629.234 81.8809 l 1,0,1
EndSplineSet
EndChar

StartChar: D
Encoding: 68 68 39
Width: 572
Flags: W
HStem: -8.5 67.1865<70.3883 507.382> 619.336 77.1641<73.5837 507.345>
VStem: 32.5 83.3008<58.3516 619.407> 453.273 87.2734<-25.4107 702.951>
LayerCount: 2
Fore
SplineSet
540.547 339.712 m 0,0,1
 540.547 -8.5 540.547 -8.5 273 -8.5 c 2,2,-1
 32.5 -8.5 l 1,3,-1
 32.5 696.5 l 1,4,-1
 276.017 696.5 l 1,5,6
 540.547 696.5 540.547 696.5 540.547 339.712 c 0,0,1
115.801 58.3516 m 1,7,8
 157.595 58.6865 157.595 58.6865 272.913 58.6865 c 0,9,10
 453.273 58.6865 453.273 58.6865 453.273 339.011 c 0,11,12
 453.273 618.965 453.273 618.965 273.036 619.336 c 0,13,14
 238.422 619.407 238.422 619.407 115.801 619.407 c 1,15,-1
 115.801 58.3516 l 1,7,8
EndSplineSet
EndChar

StartChar: E
Encoding: 69 69 40
Width: 468
Flags: W
HStem: -8.5 84<113.5 424.5> 329.5 82<113.5 337.5> 614.5 87<113.5 415.5>
VStem: 32.5 81<75.5 329.5 411.5 614.5>
LayerCount: 2
Fore
SplineSet
32.5 701.5 m 1,0,-1
 415.5 701.5 l 1,1,-1
 415.5 614.5 l 1,2,-1
 113.5 614.5 l 1,3,-1
 113.5 411.5 l 1,4,-1
 337.5 411.5 l 1,5,-1
 337.5 329.5 l 1,6,-1
 113.5 329.5 l 1,7,-1
 113.5 75.5 l 1,8,-1
 424.5 75.5 l 1,9,-1
 424.5 -8.5 l 1,10,-1
 32.5 -8.5 l 1,11,-1
 32.5 701.5 l 1,0,-1
EndSplineSet
EndChar

StartChar: F
Encoding: 70 70 41
Width: 446
Flags: W
HStem: 328.5 84<112.5 337.5> 621.5 78<112.5 402.5>
VStem: 32.5 80<-8.5 328.5 412.5 621.5>
LayerCount: 2
Fore
SplineSet
32.5 699.5 m 1,0,-1
 402.5 699.5 l 1,1,-1
 402.5 621.5 l 1,2,-1
 112.5 621.5 l 1,3,-1
 112.5 412.5 l 1,4,-1
 337.5 412.5 l 1,5,-1
 337.5 328.5 l 1,6,-1
 112.5 328.5 l 1,7,-1
 112.5 -8.5 l 1,8,-1
 32.5 -8.5 l 1,9,-1
 32.5 699.5 l 1,0,-1
EndSplineSet
EndChar

StartChar: G
Encoding: 71 71 42
Width: 681
Flags: W
HStem: -12.46 88.96<283.231 455.379> 274.5 88.7197<409.5 544.48> 628 86.6201<224.598 516.909>
VStem: 4 89.5801<288.744 494.159> 544.51 92.46<135.05 274.5>
LayerCount: 2
Fore
SplineSet
633.52 363.22 m 1,0,-1
 636.97 363.23 l 1,1,-1
 636.97 115.77 l 1,2,3
 545.995 -10.0049 545.995 -10.0049 364.83 -12.46 c 0,4,5
 206.97 -20.0049 206.97 -20.0049 108 82 c 0,6,7
 4.02051 171.13 4.02051 171.13 4 350 c 0,8,9
 3.98535 500.495 3.98535 500.495 126 612 c 0,10,11
 238.07 715.16 238.07 715.16 365.58 714.62 c 0,12,13
 510 714.005 510 714.005 597.55 633.25 c 1,14,-1
 536.22 571.49 l 1,15,-1
 535.33 570.68 l 1,16,-1
 534.7 571.71 l 1,17,-1
 536.22 571.49 l 1,18,19
 483.18 627.995 483.18 627.995 370.75 628 c 128,-1,20
 258.325 628 258.325 628 176.3 544.23 c 128,-1,21
 94.2803 460.455 94.2803 460.455 93.5801 348.11 c 0,22,23
 102.28 215.675 102.28 215.675 176 138 c 0,24,25
 239.06 71.5498 239.06 71.5498 360 76.5 c 0,26,27
 447.675 80.085 447.675 80.085 472.26 94.04 c 2,28,-1
 544.51 135.05 l 1,29,-1
 544.48 274.5 l 1,30,-1
 409.5 274.5 l 1,31,-1
 408.5 276.5 l 1,32,-1
 408.5 363.48 l 1,33,-1
 411.99 363.5 l 1,34,-1
 633.52 363.22 l 1,0,-1
EndSplineSet
EndChar

StartChar: H
Encoding: 72 72 43
Width: 548
Flags: W
HStem: 313.5 78<117.5 420.5>
VStem: 32.5 85<-8.5 313.5 391.5 698.5> 420.5 83<-8.5 313.5 391.5 704.5>
LayerCount: 2
Fore
SplineSet
420.5 704.5 m 5,0,-1
 503.5 704.5 l 1,1,-1
 503.5 -8.5 l 1,2,-1
 420.5 -8.5 l 5,3,-1
 420.5 313.5 l 5,4,-1
 117.5 313.5 l 1,5,-1
 117.5 -8.5 l 1,6,-1
 32.5 -8.5 l 1,7,-1
 32.5 698.5 l 1,8,-1
 116.5 698.5 l 1,9,-1
 116.5 391.5 l 1,10,-1
 420.5 391.5 l 5,11,-1
 420.5 704.5 l 5,0,-1
EndSplineSet
EndChar

StartChar: I
Encoding: 73 73 44
Width: 162
Flags: W
VStem: 32.5205 84.9795<-8.5 704.5>
LayerCount: 2
Fore
SplineSet
80.4883 704.5 m 1,0,-1
 117.5 704.5 l 1,1,-1
 117.5 -8.5 l 1,2,-1
 32.5205 -8.5 l 1,3,-1
 32.5205 704.5 l 1,4,-1
 80.4883 704.5 l 1,0,-1
EndSplineSet
EndChar

StartChar: J
Encoding: 74 74 45
Width: 330
Flags: W
HStem: -49 75<61.0687 228.45>
VStem: 202.5 83<-15.4 710.04>
LayerCount: 2
Fore
SplineSet
9.15918 60.9785 m 1,0,1
 73.7451 26 73.7451 26 116 26 c 0,2,3
 202.5 26 202.5 26 202.5 164 c 2,4,-1
 202.5 710.04 l 1,5,-1
 285.5 710.04 l 1,6,-1
 285.5 167 l 2,7,8
 285.5 -49 285.5 -49 116 -49 c 0,9,10
 49.8867 -49 49.8867 -49 -22.1992 0 c 1,11,-1
 9.15918 60.9785 l 1,0,1
EndSplineSet
EndChar

StartChar: K
Encoding: 75 75 46
Width: 590
Flags: W
VStem: 32.5 84<-8.5 336.238 384.4 694.5> 376.03 108.463<586.037 694.5> 434.275 111.291<-8.5 102.791>
LayerCount: 2
Fore
SplineSet
376.03 694.5 m 1,0,-1
 484.493 694.5 l 5,1,-1
 199.406 362.24 l 5,2,-1
 545.566 -8.5 l 5,3,-1
 434.275 -8.5 l 1,4,-1
 116.5 336.238 l 1,5,-1
 116.5 -8.5 l 1,6,-1
 32.5 -8.5 l 1,7,-1
 32.5 694.5 l 1,8,-1
 116.5 694.5 l 1,9,-1
 116.5 384.4 l 1,10,-1
 376.03 694.5 l 1,0,-1
EndSplineSet
EndChar

StartChar: L
Encoding: 76 76 47
Width: 470
Flags: W
HStem: -8.5 87<120.5 425.5>
VStem: 32.5 88<78.5 698.409>
LayerCount: 2
Fore
SplineSet
120.5 78.5 m 1,0,-1
 425.5 78.5 l 1,1,-1
 425.5 -8.5 l 1,2,-1
 32.5 -8.5 l 1,3,-1
 32.5 698.409 l 1,4,-1
 120.5 698.409 l 1,5,-1
 120.5 78.5 l 1,0,-1
EndSplineSet
EndChar

StartChar: M
Encoding: 77 77 48
Width: 694
Flags: W
VStem: 27.3193 88.0107<-8.13477 128.734> 562.727 86.9434<-9.13086 123.41>
LayerCount: 2
Fore
SplineSet
340.987 384.365 m 1,0,-1
 633.98 751.275 l 1,1,-1
 649.67 -9.13086 l 1,2,-1
 562.727 -13.8682 l 1,3,-1
 551.148 515.94 l 5,4,-1
 341.082 259.747 l 5,5,-1
 124.02 519.188 l 5,6,-1
 115.33 -12.8662 l 1,7,-1
 27.3193 -8.13477 l 1,8,-1
 44.0498 755.159 l 1,9,-1
 340.987 384.365 l 1,0,-1
EndSplineSet
EndChar

StartChar: N
Encoding: 78 78 49
Width: 624
Flags: W
VStem: 32.5 83<-5.5 497.756> 494.5 85<173.315 704.5>
LayerCount: 2
Fore
SplineSet
115.5 497.756 m 5,0,-1
 115.5 -5.5 l 1,1,-1
 32.5 -5.5 l 1,2,-1
 32.5 722.315 l 1,3,-1
 494.5 173.315 l 1,4,-1
 494.5 704.5 l 1,5,-1
 579.5 704.5 l 1,6,-1
 579.5 -50.2432 l 1,7,-1
 115.5 497.756 l 5,0,-1
EndSplineSet
EndChar

StartChar: O
Encoding: 79 79 50
Width: 758
Flags: W
HStem: -19 74.6621<284.871 451.505> 634.338 75.7021<268.645 442.614>
VStem: 4 97.4092<274.466 415.862> 643.091 85.4092<275.382 417.806>
LayerCount: 2
Fore
SplineSet
624.216 453.509 m 132,-1,1
 605.363 505.565 605.363 505.565 571.117 546.138 c 132,-1,2
 536.871 586.707 536.871 586.707 479.706 610.521 c 132,-1,3
 422.541 634.338 422.541 634.338 355.63 634.338 c 132,-1,4
 288.719 634.338 288.719 634.338 239.966 609.693 c 4,5,6
 150.158 564.297 150.158 564.297 116.927 451.987 c 4,7,8
 101.409 399.547 101.409 399.547 101.409 345.164 c 132,-1,9
 101.409 290.781 101.409 290.781 120.044 238.059 c 132,-1,10
 138.691 185.302 138.691 185.302 170.333 145.221 c 132,-1,11
 201.974 105.139 201.974 105.139 253.033 80.3984 c 132,-1,12
 304.082 55.6621 304.082 55.6621 368.12 55.6621 c 132,-1,13
 432.263 55.6621 432.263 55.6621 486.154 80.498 c 132,-1,14
 539.959 105.294 539.959 105.294 573.165 145.882 c 132,-1,15
 606.371 186.467 606.371 186.467 624.72 239.111 c 132,-1,16
 643.091 291.83 643.091 291.83 643.091 346.656 c 132,-1,0
 643.091 401.387 643.091 401.387 624.216 453.509 c 132,-1,1
515.955 679.572 m 128,-1,18
 589.641 649.104 589.641 649.104 635.133 597.41 c 128,-1,19
 680.626 545.716 680.626 545.716 704.589 479.752 c 128,-1,20
 728.5 413.933 728.5 413.933 728.5 345.5 c 128,-1,21
 728.5 277.012 728.5 277.012 704.051 211.642 c 128,-1,22
 679.593 146.246 679.593 146.246 634.615 95.0684 c 128,-1,23
 589.637 43.8916 589.637 43.8916 517.463 12.4453 c 128,-1,24
 445.288 -19 445.288 -19 358.99 -19 c 128,-1,25
 272.599 -19 272.599 -19 203.369 12.5166 c 128,-1,26
 134.139 44.0332 134.139 44.0332 91.6914 95.7949 c 128,-1,27
 49.2422 147.556 49.2422 147.556 26.6211 212.861 c 128,-1,28
 4 278.167 4 278.167 4 347 c 0,29,30
 4 491.799 4 491.799 89.9551 597.92 c 0,31,32
 132.062 649.907 132.062 649.907 199.804 679.973 c 128,-1,33
 267.546 710.04 267.546 710.04 354.952 710.04 c 128,-1,17
 442.27 710.04 442.27 710.04 515.955 679.572 c 128,-1,18
EndSplineSet
EndChar

StartChar: P
Encoding: 80 80 51
Width: 465
Flags: W
HStem: 295.5 86.3574<109.5 277.674> 622.143 78.3574<109.381 290.925>
VStem: 32.5 77<-7.5 295.5 381.857 622.143> 353.119 73.8809<431.293 568.964>
LayerCount: 2
Fore
SplineSet
224 700.5 m 2,0,1
 288.383 700.5 288.383 700.5 336.419 671.261 c 128,-1,2
 384.605 641.931 384.605 641.931 405.802 597.514 c 128,-1,3
 427 553.096 427 553.096 427 500.2 c 128,-1,4
 427 447.194 427 447.194 404.247 401.088 c 128,-1,5
 381.495 354.983 381.495 354.983 331.873 325.211 c 128,-1,6
 282.352 295.5 282.352 295.5 214 295.5 c 2,7,-1
 109.5 295.5 l 1,8,-1
 109.5 -7.5 l 1,9,-1
 32.5 -7.5 l 1,10,-1
 32.5 700.5 l 1,11,-1
 224 700.5 l 2,0,1
109.381 622.143 m 5,12,-1
 109.381 381.857 l 5,13,-1
 231.462 381.857 l 6,14,15
 267.01 381.857 267.01 381.857 296.565 401.041 c 4,16,17
 353.119 437.749 353.119 437.749 353.119 507.56 c 4,18,19
 353.119 565.17 353.119 565.17 304.345 602.639 c 4,20,21
 278.955 622.143 278.955 622.143 239.054 622.143 c 6,22,-1
 109.381 622.143 l 5,12,-1
EndSplineSet
EndChar

StartChar: Q
Encoding: 81 81 52
Width: 740
Flags: W
HStem: -6.72754 81.5967<228.968 459.033> 618.36 81.4854<231.044 480.77>
VStem: 1.23242 81.8262<222.167 470.926> 628.722 81.876<229.44 470.926>
LayerCount: 2
Fore
SplineSet
533.714 652.454 m 128,-1,1
 615.448 605.053 615.448 605.053 663.018 523.646 c 128,-1,2
 710.598 442.223 710.598 442.223 710.598 346.544 c 0,3,4
 710.598 220.349 710.598 220.349 629.902 122.715 c 1,5,-1
 695.034 50.7021 l 1,6,-1
 616.627 -13.8857 l 1,7,-1
 556.177 55.2861 l 1,8,9
 465.726 -6.72754 465.726 -6.72754 362.791 -6.72754 c 128,-1,10
 259.851 -6.72754 259.851 -6.72754 178.116 40.6543 c 128,-1,11
 96.3818 88.04 96.3818 88.04 48.8018 169.453 c 128,-1,12
 1.23242 250.869 1.23242 250.869 1.23242 346.544 c 128,-1,13
 1.23242 442.223 1.23242 442.223 48.8018 523.646 c 128,-1,14
 96.3818 605.053 96.3818 605.053 178.116 652.454 c 128,-1,15
 259.859 699.846 259.859 699.846 355.91 699.846 c 128,-1,0
 451.956 699.846 451.956 699.846 533.714 652.454 c 128,-1,1
355.91 618.36 m 132,-1,17
 242.618 618.36 242.618 618.36 162.839 538.894 c 132,-1,18
 83.0586 459.417 83.0586 459.417 83.0586 346.58 c 132,-1,19
 83.0586 233.742 83.0586 233.742 162.828 154.306 c 132,-1,20
 242.608 74.874 242.608 74.874 355.91 74.8691 c 4,21,22
 435.235 74.8691 435.235 74.8691 501.562 116.582 c 5,23,-1
 427.903 199.867 l 5,24,-1
 505.865 262.629 l 5,25,-1
 575.282 184.768 l 5,26,27
 628.731 256.473 628.731 256.473 628.722 346.58 c 4,28,29
 628.722 459.417 628.722 459.417 548.972 538.894 c 132,-1,16
 469.207 618.355 469.207 618.355 355.91 618.36 c 132,-1,17
EndSplineSet
EndChar

StartChar: R
Encoding: 82 82 53
Width: 574
Flags: W
HStem: 305.083 71.5938<117.049 295.06> 635.323 74.7168<117.049 310.298>
VStem: 32.4639 84.0361<-8.5 304.5 376.677 635.323> 378.951 72.6875<462.907 552.754> 442.656 86.8633<-8.5 78.3633>
LayerCount: 2
Fore
SplineSet
274 710.04 m 2,0,1
 301.922 710.04 301.922 710.04 344.798 689.106 c 0,2,3
 424.398 650.24 424.398 650.24 445.781 557.918 c 0,4,5
 451.639 532.626 451.639 532.626 451.639 511.738 c 128,-1,6
 451.639 490.851 451.639 490.851 446.877 461.894 c 128,-1,7
 442.114 432.938 442.114 432.938 419.182 396.541 c 128,-1,8
 396.25 360.145 396.25 360.145 362.925 337.896 c 1,9,-1
 529.52 -8.5 l 1,10,-1
 442.656 -8.5 l 1,11,-1
 291.856 305.083 l 1,12,13
 282.579 304.5 282.579 304.5 271 304.5 c 1,14,-1
 116.5 304.5 l 1,15,-1
 116.5 -8.5 l 1,16,-1
 32.4639 -8.5 l 1,17,-1
 32.4639 710.04 l 1,18,-1
 274 710.04 l 2,0,1
117.049 635.323 m 1,19,-1
 117.049 376.677 l 1,20,-1
 259.623 376.677 l 6,21,22
 295.06 376.677 295.06 376.677 322.581 395.599 c 4,23,24
 378.951 434.353 378.951 434.353 378.951 504.75 c 4,25,26
 378.951 580.88 378.951 580.88 330.245 616.096 c 4,27,28
 303.652 635.323 303.652 635.323 265.871 635.323 c 6,29,-1
 117.049 635.323 l 1,19,-1
EndSplineSet
EndChar

StartChar: S
Encoding: 83 83 54
Width: 468
Flags: W
HStem: -10 80<111.5 383.2> 628 75<95 278.843>
VStem: 38 82.5<442.836 650.5> 340 84.5<40.6 282.363>
LayerCount: 2
Fore
SplineSet
320 364 m 6,0,1
 424.5 309.086 424.5 309.086 424.5 164.5 c 4,2,3
 424.5 -10 424.5 -10 195.5 -10 c 4,4,5
 127 -10 127 -10 17.5 50 c 4,6,-1
 35.5 142 l 5,7,8
 131 70 131 70 196 70 c 4,9,10
 340 70 340 70 340 168 c 4,11,12
 340 255.972 340 255.972 272 294 c 6,13,-1
 166.5 353 l 5,14,15
 38 415.896 38 415.896 38 559.448 c 132,-1,16
 38 703 38 703 212.5 703 c 4,17,18
 273.682 703 273.682 703 347.5 657 c 4,19,-1
 301.5 590 l 5,20,21
 261.918 628 261.918 628 205.5 628 c 4,22,23
 120.5 628 120.5 628 120.5 553 c 4,24,25
 120.5 468.259 120.5 468.259 192.5 431 c 4,26,-1
 320 364 l 6,0,1
EndSplineSet
EndChar

StartChar: T
Encoding: 84 84 55
Width: 480
Flags: W
HStem: 0 21G<160 165 160 250> 609 77<-22 165 250 436>
VStem: 165 85<0 609>
LayerCount: 2
Fore
SplineSet
-22 686 m 5,0,-1
 436 686 l 5,1,-1
 436 609 l 5,2,-1
 250 609 l 5,3,-1
 250 0 l 5,4,-1
 160 0 l 5,5,-1
 165 0 l 5,6,-1
 165 609 l 5,7,-1
 -22 609 l 5,8,-1
 -22 686 l 5,0,-1
EndSplineSet
EndChar

StartChar: U
Encoding: 85 85 56
Width: 553
Flags: W
HStem: -11 88<231.756 303.244>
VStem: 26 93<200.394 672> 418 91<201.806 671>
LayerCount: 2
Fore
SplineSet
119 674 m 5,0,-1
 119 255 l 6,1,2
 119 212.995 119 212.995 132.5 178 c 132,-1,3
 146.01 142.979 146.01 142.979 166.5 121.5 c 132,-1,4
 187.012 99.998 187.012 99.998 213.5 88.5 c 132,-1,5
 240.005 76.9951 240.005 76.9951 267.5 77 c 132,-1,6
 294.995 77 294.995 77 321.5 89 c 132,-1,7
 347.987 100.992 347.987 100.992 369 122.5 c 132,-1,8
 390 143.995 390 143.995 403.5 179.5 c 132,-1,9
 417 215.005 417 215.005 417 259 c 5,10,-1
 418 257 l 5,11,-1
 418 671 l 5,12,-1
 509 671 l 5,13,-1
 509 254 l 6,14,15
 509 189.009 509 189.009 490.5 137.5 c 132,-1,16
 472.005 86.0049 472.005 86.0049 437.5 54.5 c 132,-1,17
 402.987 22.9883 402.987 22.9883 358.5 6 c 132,-1,18
 313.982 -11 313.982 -11 267.5 -11 c 132,-1,19
 221 -11 221 -11 177 8 c 132,-1,20
 133.005 27.0049 133.005 27.0049 99 58.5 c 132,-1,21
 64.9951 90 64.9951 90 45.5 141 c 132,-1,22
 26 192 26 192 26 253 c 6,23,-1
 26 672 l 5,24,-1
 119 674 l 5,0,-1
EndSplineSet
EndChar

StartChar: V
Encoding: 86 86 57
Width: 653
Flags: W
LayerCount: 2
Fore
SplineSet
538 729 m 5,0,-1
 609 693 l 5,1,-1
 286 -37 l 5,2,-1
 -22 693 l 5,3,-1
 54 728 l 5,4,-1
 287 181 l 5,5,-1
 538 729 l 5,0,-1
EndSplineSet
EndChar

StartChar: W
Encoding: 87 87 58
Width: 834
Flags: W
LayerCount: 2
Fore
SplineSet
389 370 m 5,0,-1
 222 -21 l 5,1,-1
 -21 692 l 5,2,-1
 66 717 l 5,3,-1
 226 227 l 5,4,-1
 370 559 l 5,5,-1
 402 559 l 5,6,-1
 545 228 l 5,7,-1
 713 718 l 5,8,-1
 790 692 l 5,9,-1
 548 -19 l 5,10,-1
 389 370 l 5,0,-1
EndSplineSet
EndChar

StartChar: X
Encoding: 88 88 59
Width: 673
Flags: W
LayerCount: 2
Fore
SplineSet
566 671 m 5,0,-1
 367 395 l 1,1,-1
 629 19 l 1,2,-1
 629 18 l 1,3,-1
 629 19 l 1,4,-1
 558 -38.5 l 1,5,-1
 310 310 l 1,6,-1
 72 -28 l 1,7,-1
 -8 19 l 1,8,-1
 255 390 l 1,9,-1
 38 677 l 1,10,-1
 128 736 l 1,11,-1
 310 469 l 1,12,-1
 498 731 l 1,13,-1
 566 671 l 5,0,-1
EndSplineSet
EndChar

StartChar: Y
Encoding: 89 89 60
Width: 594
Flags: W
VStem: 217 99<3 330>
LayerCount: 2
Fore
SplineSet
-22 692 m 5,0,-1
 54 736 l 5,1,-1
 266 418 l 5,2,-1
 478 736 l 5,3,-1
 550 692 l 5,4,-1
 316 334 l 5,5,-1
 316 3 l 5,6,-1
 217 3 l 5,7,-1
 217 330 l 5,8,-1
 218 330 l 5,9,-1
 -22 692 l 5,0,-1
EndSplineSet
EndChar

StartChar: Z
Encoding: 90 90 61
Width: 591
Flags: W
HStem: 0 88<156 540> 602 80<77 392>
LayerCount: 2
Fore
SplineSet
77 682 m 5,0,-1
 547 682 l 5,1,-1
 156 88 l 5,2,-1
 540 88 l 5,3,-1
 540 0 l 5,4,-1
 -15 0 l 5,5,-1
 392 602 l 5,6,-1
 51 602 l 5,7,-1
 77 682 l 5,0,-1
EndSplineSet
EndChar

StartChar: bracketleft
Encoding: 91 91 62
Width: 327
Flags: W
HStem: -8.5 97<150.5 294.5> 613.5 97<150.5 292.5>
VStem: 53.5 97<88.5 613.5> 53.5 239<-8.5 88.5 613.5 710.5>
LayerCount: 2
Fore
SplineSet
53.5 702 m 1,0,-1
 53.5 710.5 l 1,1,-1
 62 710.5 l 1,2,-1
 284 710.5 l 1,3,-1
 292.5 710.5 l 1,4,-1
 292.5 702 l 1,5,-1
 292.5 622 l 1,6,-1
 292.5 613.5 l 1,7,-1
 284 613.5 l 1,8,-1
 150.5 613.5 l 1,9,-1
 150.5 88.5 l 1,10,-1
 286 88.5 l 1,11,-1
 294.5 88.5 l 1,12,-1
 294.5 80 l 1,13,-1
 294.5 -3.71547e-07 l 1,14,-1
 294.5 -8.5 l 1,15,-1
 286 -8.5 l 1,16,-1
 62 -8.5 l 1,17,-1
 53.5 -8.5 l 1,18,-1
 53.5 -3.71547e-07 l 1,19,-1
 53.5 702 l 1,0,-1
EndSplineSet
EndChar

StartChar: backslash
Encoding: 92 92 63
Width: 382
Flags: W
VStem: 6.67305 371.654<-8.5 710.5>
LayerCount: 2
Fore
SplineSet
11.0552 698.978 m 1,0,-1
 6.67305 710.5 l 1,1,-1
 19 710.5 l 1,2,-1
 99 710.5 l 1,3,-1
 104.861 710.5 l 1,4,-1
 106.945 705.022 l 1,5,-1
 373.945 3.02172 l 1,6,-1
 378.327 -8.5 l 1,7,-1
 366 -8.5 l 1,8,-1
 286 -8.5 l 1,9,-1
 280.139 -8.5 l 1,10,-1
 278.055 -3.02172 l 1,11,-1
 11.0552 698.978 l 1,0,-1
EndSplineSet
EndChar

StartChar: bracketright
Encoding: 93 93 64
Width: 327
Flags: W
HStem: -8.5 97<53.5 197.5> 613.5 97<55.5 197.5>
VStem: 53.5 241<-8.5 88.5 613.5 710.5> 197.5 97<88.5 613.5>
LayerCount: 2
Fore
SplineSet
62 -8.5 m 1,0,-1
 53.5 -8.5 l 1,1,-1
 53.5 -3.71547e-07 l 1,2,-1
 53.5 80 l 1,3,-1
 53.5 88.5 l 1,4,-1
 62 88.5 l 1,5,-1
 197.5 88.5 l 1,6,-1
 197.5 613.5 l 1,7,-1
 64 613.5 l 1,8,-1
 55.5 613.5 l 1,9,-1
 55.5 622 l 1,10,-1
 55.5 702 l 1,11,-1
 55.5 710.5 l 1,12,-1
 64 710.5 l 1,13,-1
 286 710.5 l 1,14,-1
 294.5 710.5 l 1,15,-1
 294.5 702 l 1,16,-1
 294.5 -3.71547e-07 l 1,17,-1
 294.5 -8.5 l 1,18,-1
 286 -8.5 l 1,19,-1
 62 -8.5 l 1,0,-1
EndSplineSet
EndChar

StartChar: asciicircum
Encoding: 94 94 65
Width: 605
Flags: W
HStem: 530 204<309 448>
VStem: 157 80<530 610> 373 75<530 605>
LayerCount: 2
Fore
SplineSet
448 530 m 1,0,-1
 373 530 l 1,1,-1
 308 621 l 1,2,-1
 237 530 l 1,3,-1
 157 530 l 1,4,-1
 309 734 l 1,5,-1
 448 530 l 1,0,-1
EndSplineSet
EndChar

StartChar: underscore
Encoding: 95 95 66
Width: 559
Flags: W
HStem: -82 82<48 511>
LayerCount: 2
Fore
SplineSet
511 0 m 1,0,-1
 511 -82 l 1,1,-1
 48 -82 l 1,2,-1
 48 0 l 1,3,-1
 511 0 l 1,0,-1
EndSplineSet
EndChar

StartChar: grave
Encoding: 193 96 67
Width: 1000
Flags: W
HStem: 791 194<461 551>
VStem: 399 202<838 912>
LayerCount: 2
Fore
SplineSet
461 985 m 1,0,-1
 601 838 l 1,1,-1
 551 791 l 1,2,-1
 399 912 l 1,3,-1
 461 985 l 1,0,-1
EndSplineSet
EndChar

StartChar: a
Encoding: 97 97 68
Width: 438
VWidth: 1220
Flags: W
HStem: 0 64.2617<304.87 355.466> 257.312 81.2373<44.574 311.65>
VStem: 2.83984 76.6484<38.169 289.135> 316.36 77.2354<35.8596 375.392>
LayerCount: 2
Fore
SplineSet
393.596 0 m 1,0,-1
 304.87 0 l 1,1,-1
 304.87 37.1367 l 1,2,3
 266.5 -13.5 266.5 -13.5 187.5 -13.5 c 0,4,5
 2.83984 -13.5 2.83984 -13.5 2.83984 152.94 c 0,6,7
 2.83984 338.55 2.83984 338.55 193.39 338.55 c 0,8,9
 284.359 338.55 284.359 338.55 316.36 281.82 c 1,10,11
 316.36 372.161 316.36 372.161 289.62 403.62 c 0,12,13
 233.49 470.72 233.49 470.72 101.4 404.06 c 1,14,-1
 63.5801 461.58 l 1,15,16
 131.09 500.234 131.09 500.234 185.613 511.943 c 0,17,18
 254.222 526.646 254.222 526.646 301.727 500.2 c 0,19,20
 348.645 474.331 348.645 474.331 370.83 419.971 c 0,21,22
 393.596 364.188 393.596 364.188 393.596 326.838 c 2,23,-1
 393.596 0 l 1,0,-1
317.251 158.936 m 1,24,25
 317.251 257.312 317.251 257.312 195.869 257.312 c 0,26,27
 79.4883 257.312 79.4883 257.312 79.4883 151.237 c 0,28,29
 79.4883 64.2617 79.4883 64.2617 189.869 64.2617 c 0,30,31
 317.251 64.2617 317.251 64.2617 317.251 158.936 c 1,24,25
EndSplineSet
EndChar

StartChar: b
Encoding: 98 98 69
Width: 510
VWidth: 1220
Flags: W
HStem: -11.9375 81.6807<157.609 427.557> 421.312 85.6055<120.926 425.326>
VStem: 32 80.502<0 50.4971 437.874 710.04> 385.058 83.4453<15.8059 472.846>
LayerCount: 2
Fore
SplineSet
249.312 506.918 m 0,0,1
 468.503 506.918 468.503 506.918 468.503 247.49 c 128,-1,2
 468.503 -11.9375 468.503 -11.9375 249.312 -11.9375 c 0,3,4
 178.771 -11.9375 178.771 -11.9375 112.502 50.4971 c 1,5,-1
 112.625 0 l 1,6,-1
 32 0 l 1,7,-1
 32 710.04 l 1,8,-1
 113.14 710.04 l 1,9,-1
 113.012 437.874 l 1,10,11
 150.554 506.918 150.554 506.918 249.312 506.918 c 0,0,1
243.395 69.7432 m 0,12,13
 385.058 69.7432 385.058 69.7432 385.058 249.534 c 0,14,15
 385.058 421.312 385.058 421.312 250.83 421.312 c 4,16,17
 105.164 421.312 105.164 421.312 105.164 249.1 c 0,18,19
 105.164 69.7432 105.164 69.7432 243.395 69.7432 c 0,12,13
EndSplineSet
EndChar

StartChar: c
Encoding: 99 99 70
Width: 418
VWidth: 1220
Flags: W
HStem: -12.1543 76.3408<39.0611 318.858> 436.059 75.9492<42.3878 305.577>
VStem: 3.00195 80.4492<11.124 494.558>
LayerCount: 2
Fore
SplineSet
3.00195 244.837 m 0,0,1
 3.00195 512.008 3.00195 512.008 222.518 512.008 c 0,2,3
 317.979 512.008 317.979 512.008 378.097 451.909 c 1,4,-1
 325.808 395.99 l 0,5,6
 285.904 436.059 285.904 436.059 220.329 436.059 c 0,7,8
 83.4512 436.059 83.4512 436.059 83.4512 241.062 c 0,9,10
 83.4512 64.1865 83.4512 64.1865 231.418 64.1865 c 0,11,12
 298.68 64.1865 298.68 64.1865 324.926 96.2432 c 1,13,-1
 374.581 39.4473 l 0,14,15
 323.489 -12.1543 323.489 -12.1543 226.605 -12.1543 c 0,16,17
 3.00195 -12.1543 3.00195 -12.1543 3.00195 244.837 c 0,0,1
EndSplineSet
EndChar

StartChar: d
Encoding: 100 100 71
Width: 486
VWidth: 1220
Flags: W
HStem: 0 70.252<362.881 408.522> 430.201 84.0078<39.8502 367.206>
VStem: 2.43945 81.6455<14.7596 482.694> 362.38 79.1396<0 58.9805 448.598 710.04>
LayerCount: 2
Fore
SplineSet
228.396 -11.2695 m 0,0,1
 2.43945 -11.2695 2.43945 -11.2695 2.43945 251.47 c 128,-1,2
 2.43945 514.209 2.43945 514.209 234.586 514.209 c 0,3,4
 336.602 514.209 336.602 514.209 362.38 448.598 c 1,5,-1
 362.38 710.04 l 1,6,-1
 441.52 710.04 l 1,7,-1
 441.52 0 l 1,8,-1
 362.881 0 l 1,9,-1
 362.881 58.9805 l 1,10,11
 321.518 -11.2695 321.518 -11.2695 228.396 -11.2695 c 0,0,1
231.534 430.201 m 0,12,13
 84.085 430.201 84.085 430.201 84.085 255.227 c 0,14,15
 84.085 70.252 84.085 70.252 232.647 70.252 c 0,16,17
 367.936 70.252 367.936 70.252 367.936 255.227 c 0,18,19
 367.936 430.201 367.936 430.201 231.534 430.201 c 0,12,13
EndSplineSet
EndChar

StartChar: e
Encoding: 101 101 72
Width: 456
VWidth: 1220
Flags: W
HStem: -12.6641 80.2598<63.8302 322.09> 210.031 78.7021<81.502 339.249> 432 80<62.9566 375.402>
VStem: 339.249 84.751<248 474.98>
LayerCount: 2
Fore
SplineSet
3.58984 249.668 m 128,-1,1
 3.58984 512 3.58984 512 217 512 c 0,2,-1
 216 512 l 0,3,4
 424 512 424 512 424 248 c 0,5,-1
 424 210.031 l 1,6,-1
 78.8877 210.031 l 0,7,8
 98.7852 67.5957 98.7852 67.5957 215.302 67.5957 c 1,9,10
 297.446 67.5957 297.446 67.5957 343.067 122.652 c 1,11,-1
 398.521 72.041 l 1,12,13
 337 -12.6641 337 -12.6641 212.019 -12.6641 c 1,14,0
 3.58984 -12.6641 3.58984 -12.6641 3.58984 249.668 c 128,-1,1
339.249 288.733 m 0,15,16
 339.249 432 339.249 432 218.738 432 c 0,17,18
 98.9062 432 98.9062 432 81.502 288.733 c 1,19,-1
 339.249 288.733 l 0,15,16
EndSplineSet
EndChar

StartChar: f
Encoding: 102 102 73
Width: 355
VWidth: 1220
Flags: W
HStem: 0 21G<65.3398 149.94> 422.68 98.6006<4.33984 65.3398 152.38 217.9> 644 74.2402<138.298 266.156>
VStem: 65.3398 84.6006<0 422.68> 70.2197 82.1602<521.28 592.906>
LayerCount: 2
Fore
SplineSet
70.2197 521.28 m 5,0,1
 70.2197 557.979 70.2197 557.979 75 591 c 0,2,3
 91.9541 718.24 91.9541 718.24 228.02 718.24 c 0,4,5
 287 718.24 287 718.24 310.96 672.84 c 1,6,-1
 265 626 l 1,7,8
 257.12 644 257.12 644 227 644 c 0,9,10
 158.768 644 158.768 644 155 581 c 0,11,12
 152.38 537.178 152.38 537.178 152.38 521.28 c 5,13,-1
 217.9 521.28 l 5,14,-1
 217.9 422.68 l 5,15,-1
 149.94 422.68 l 5,16,-1
 149.94 0 l 1,17,-1
 65.3398 0 l 1,18,-1
 65.3398 425.12 l 5,19,-1
 4.33984 425.12 l 5,20,-1
 4.33984 521.28 l 5,21,-1
 70.2197 521.28 l 5,0,1
EndSplineSet
EndChar

StartChar: g
Encoding: 103 103 74
Width: 457
VWidth: 1220
Flags: W
HStem: -245.22 82.2197<118.2 337.204> 13.4199 80.8701<46.136 330.23> 425.773 81.627<44.0023 296.229>
VStem: 1.87402 81.583<43.4983 474.427> 324.98 87.6797<437.98 491.66> 328.64 84.0205<-163.596 67.0996> 332.264 80.3965<48.0224 478.951>
LayerCount: 2
Fore
SplineSet
83.457 263.596 m 0,0,1
 83.457 94.29 83.457 94.29 207.86 94.29 c 128,-1,2
 332.264 94.29 332.264 94.29 332.264 248.516 c 0,3,4
 332.264 425.773 332.264 425.773 214.973 425.773 c 0,5,6
 83.457 425.773 83.457 425.773 83.457 263.596 c 0,0,1
50 -182 m 1,7,-1
 96 -124 l 1,8,9
 144 -163 144 -163 230 -163 c 0,10,11
 328.64 -163 328.64 -163 328.64 -56.4805 c 1,12,-1
 328.64 67.0996 l 1,13,14
 301.428 13.4199 301.428 13.4199 205.42 13.4199 c 0,15,16
 1.87402 13.4199 1.87402 13.4199 1.87402 260.41 c 128,-1,17
 1.87402 507.4 1.87402 507.4 217.01 507.4 c 0,18,19
 277.947 507.4 277.947 507.4 324.98 437.98 c 1,20,-1
 324.98 491.66 l 1,21,-1
 412.66 491.66 l 1,22,-1
 412.66 0 l 2,23,24
 412.66 -125.843 412.66 -125.843 360.806 -188.055 c 0,25,26
 313.157 -245.22 313.157 -245.22 233 -245.22 c 0,27,28
 138 -245.22 138 -245.22 50 -182 c 1,7,-1
EndSplineSet
EndChar

StartChar: h
Encoding: 104 104 75
Width: 484
VWidth: 1220
Flags: W
HStem: 0 21G<32.0195 113.62 360.06 440.44> 413.58 86.6201<121.358 398.429>
VStem: 360.06 80.3809<0 454.206>
LayerCount: 2
Fore
SplineSet
360.06 0 m 1,0,1
 361.28 220.406 361.28 220.406 361.28 278.16 c 0,2,3
 361.28 413.58 361.28 413.58 237.45 413.58 c 128,-1,4
 113.62 413.58 113.62 413.58 113.62 278.16 c 2,5,-1
 113.62 0 l 1,6,-1
 32.0195 0 l 1,7,-1
 32.0195 710.04 l 1,8,-1
 116.06 710.04 l 1,9,-1
 116.06 428.96 l 1,10,11
 153.802 500.2 153.802 500.2 261.947 500.2 c 0,12,13
 440.44 500.2 440.44 500.2 440.44 314.76 c 2,14,-1
 440.44 0 l 1,15,-1
 360.06 0 l 1,0,1
EndSplineSet
EndChar

StartChar: i
Encoding: 105 105 76
Width: 191
VWidth: 1220
Flags: W
HStem: 0 21G<39.4199 123.22>
VStem: 39.9805 83.2393<0 514.84>
LayerCount: 2
Fore
SplineSet
19.0996 652.7 m 0,0,1
 19.0996 680.754 19.0996 680.754 39.2305 697.535 c 128,-1,2
 59.3604 714.316 59.3604 714.316 83.1504 714.31 c 128,-1,3
 106.94 714.31 106.94 714.31 127.07 698.755 c 128,-1,4
 147.2 683.2 147.2 683.2 147.2 653.92 c 0,5,6
 147.2 623.426 147.2 623.426 127.07 605.73 c 128,-1,7
 106.94 588.034 106.94 588.034 83.1504 588.04 c 128,-1,8
 59.3604 588.04 59.3604 588.04 39.2305 605.12 c 128,-1,9
 19.0996 622.194 19.0996 622.194 19.0996 652.7 c 0,0,1
39.9805 514.84 m 1,10,-1
 123.22 514.84 l 1,11,-1
 123.22 0 l 1,12,-1
 39.4199 0 l 1,13,-1
 39.9805 514.84 l 1,10,-1
EndSplineSet
EndChar

StartChar: j
Encoding: 106 106 77
Width: 194
VWidth: 1220
Flags: W
VStem: 38.9805 83.2393<-141.52 514.84>
LayerCount: 2
Fore
SplineSet
21.54 652.7 m 0,0,1
 21.54 680.754 21.54 680.754 41.6699 697.535 c 128,-1,2
 61.7998 714.316 61.7998 714.316 85.5898 714.31 c 128,-1,3
 109.38 714.31 109.38 714.31 129.51 698.755 c 128,-1,4
 149.64 683.2 149.64 683.2 149.64 653.92 c 0,5,6
 149.64 623.426 149.64 623.426 129.51 605.73 c 128,-1,7
 109.38 588.034 109.38 588.034 85.5898 588.04 c 128,-1,8
 61.7998 588.04 61.7998 588.04 41.6699 605.12 c 128,-1,9
 21.54 622.194 21.54 622.194 21.54 652.7 c 0,0,1
38.9805 514.84 m 1,10,-1
 122.22 514.84 l 1,11,-1
 122.22 -141.52 l 1,12,-1
 38.9805 -141.52 l 1,13,-1
 38.9805 514.84 l 1,10,-1
EndSplineSet
EndChar

StartChar: k
Encoding: 107 107 78
Width: 527
VWidth: 1220
Flags: W
HStem: 0 21G<32 116.24 380.98 482.94>
VStem: 32 85.46<0 263.52 290.36 709.56> 344.38 100.96<416.32 517.28> 380.98 101.96<0 101.96>
LayerCount: 2
Fore
SplineSet
117.46 709.56 m 1,0,-1
 117.46 290.36 l 1,1,-1
 183.34 357.46 l 1,2,-1
 344.38 517.28 l 1,3,-1
 445.34 517.28 l 1,4,-1
 206.22 276.94 l 1,5,-1
 482.94 0 l 5,6,-1
 380.98 0 l 1,7,-1
 183.34 196.42 l 1,8,-1
 116.24 263.52 l 1,9,-1
 116.24 0 l 1,10,-1
 32 0 l 1,11,-1
 32 709.56 l 1,12,-1
 117.46 709.56 l 1,0,-1
EndSplineSet
EndChar

StartChar: l
Encoding: 108 108 79
Width: 159
VWidth: 1220
Flags: W
HStem: 0 21G<32.7656 76.6016 76.6016 114.602>
VStem: 32.7656 81.8359<0 710.04>
LayerCount: 2
Fore
SplineSet
76.6016 0 m 1,0,-1
 32.7656 0 l 1,1,-1
 32.7656 710.04 l 1,2,-1
 114.602 710.04 l 1,3,-1
 114.602 0 l 1,4,-1
 76.6016 0 l 1,0,-1
EndSplineSet
EndChar

StartChar: m
Encoding: 109 109 80
Width: 733
VWidth: 1220
Flags: W
HStem: 0 21G<21.5723 104.491 320.126 404.505 607.916 688.859> 429.7 77.2969<376.36 637.731> 437.569 62.6309<72.1442 106.943>
VStem: 21.5723 82.9189<0 500.2> 320.126 84.3789<0 470.082> 607.916 80.9434<0 476.999>
LayerCount: 2
Fore
SplineSet
370.414 437.37 m 1,0,1
 407.583 507.997 407.583 507.997 511.658 506.997 c 0,2,3
 688.859 506.997 688.859 506.997 688.859 284.06 c 2,4,-1
 688.859 0 l 1,5,-1
 607.916 0 l 1,6,-1
 607.916 283.3 l 2,7,8
 607.916 432.299 607.916 432.299 508.534 429.7 c 0,9,10
 404.505 426.979 404.505 426.979 404.505 283.3 c 2,11,-1
 404.505 0 l 1,12,-1
 320.126 0 l 1,13,-1
 320.126 283.3 l 2,14,15
 320.126 437.569 320.126 437.569 212.314 437.569 c 128,-1,16
 104.491 437.569 104.491 437.569 104.491 283.3 c 2,17,-1
 104.491 0 l 1,18,-1
 21.5723 0 l 1,19,-1
 21.5723 500.2 l 1,20,-1
 106.943 500.2 l 1,21,-1
 106.943 429.44 l 1,22,23
 135.995 513.28 135.995 513.28 212.4 512.28 c 0,24,25
 354.945 512.28 354.945 512.28 370.414 437.37 c 1,0,1
EndSplineSet
EndChar

StartChar: n
Encoding: 110 110 81
Width: 444
VWidth: 1220
Flags: W
HStem: 0 21G<21.4307 103.545 318.033 400.33> 413.14 96.166<89.6141 347.551>
VStem: 21.4307 82.1143<0 453.744> 318.033 82.2969<0 413.14>
LayerCount: 2
Fore
SplineSet
318.033 0 m 5,0,-1
 318.033 277.793 l 1,1,2
 318.033 413.14 318.033 413.14 219.64 413.14 c 0,3,4
 103.545 413.14 103.545 413.14 103.545 277.793 c 1,5,-1
 103.545 0 l 1,6,-1
 21.4307 0 l 1,7,-1
 21.4307 500.2 l 1,8,-1
 99.4941 500.2 l 1,9,-1
 99.4941 423.66 l 1,10,11
 119.592 509.306 119.592 509.306 219.518 509.306 c 0,12,13
 400.33 509.306 400.33 509.306 400.33 268.793 c 2,14,-1
 400.33 0 l 1,15,-1
 318.033 0 l 5,0,-1
EndSplineSet
EndChar

StartChar: o
Encoding: 111 111 82
Width: 580
VWidth: 1220
Flags: W
HStem: -13.2852 75.335<191.462 379.514> 436.35 77.4932<194.196 357.249>
VStem: -3.19531 90.3682<186.318 310.824> 456.253 84.9756<161.824 339.882>
LayerCount: 2
Fore
SplineSet
384.771 401.415 m 4,0,1
 338.436 436.35 338.436 436.35 275.723 436.35 c 132,-1,2
 213.01 436.35 213.01 436.35 169.602 407.863 c 132,-1,3
 126.193 379.376 126.193 379.376 106.683 337.917 c 132,-1,4
 87.1729 296.458 87.1729 296.458 87.1729 248.572 c 132,-1,5
 87.1729 200.685 87.1729 200.685 105.712 158.894 c 132,-1,6
 124.252 117.104 124.252 117.104 166.552 89.5781 c 132,-1,7
 208.853 62.0498 208.853 62.0498 266.819 62.0498 c 4,8,9
 356.084 62.0498 356.084 62.0498 408.258 119.833 c 4,10,11
 456.253 172.99 456.253 172.99 456.253 254.138 c 4,12,13
 456.253 347.554 456.253 347.554 384.771 401.415 c 4,0,1
422.713 474.958 m 128,-1,15
 485.898 436.073 485.898 436.073 513.562 377.708 c 128,-1,16
 541.229 319.343 541.229 319.343 541.229 250.878 c 128,-1,17
 541.229 182.375 541.229 182.375 511.75 123.409 c 128,-1,18
 482.271 64.4434 482.271 64.4434 417.903 25.5791 c 128,-1,19
 353.535 -13.2852 353.535 -13.2852 266.938 -13.2852 c 128,-1,20
 180.339 -13.2852 180.339 -13.2852 115.935 25.5977 c 128,-1,21
 51.5312 64.4795 51.5312 64.4795 24.168 123.476 c 128,-1,22
 -3.19531 182.473 -3.19531 182.473 -3.19531 250.878 c 128,-1,23
 -3.19531 319.443 -3.19531 319.443 27.1592 377.702 c 128,-1,24
 57.6025 436.139 57.6025 436.139 121.949 474.991 c 128,-1,25
 186.296 513.843 186.296 513.843 272.912 513.843 c 128,-1,14
 359.528 513.843 359.528 513.843 422.713 474.958 c 128,-1,15
EndSplineSet
EndChar

StartChar: p
Encoding: 112 112 83
Width: 499
VWidth: 1220
Flags: W
HStem: -12.2002 77.7598<101.042 428.335> 435.62 64.5801<62.156 100.18>
VStem: 381.56 78.6006<8.50537 489.584>
LayerCount: 2
Fore
SplineSet
213.64 -12.2002 m 0,0,1
 127.026 -12.2002 127.026 -12.2002 98.96 58.5596 c 1,2,-1
 98.96 -245.22 l 1,3,-1
 21.3604 -245.22 l 1,4,-1
 21.3604 500.2 l 1,5,-1
 100.18 500.2 l 1,6,-1
 100.18 442.86 l 1,7,8
 145.436 513.4 145.436 513.4 222.18 513.4 c 0,9,10
 460.16 513.4 460.16 513.4 460.16 256.2 c 0,11,12
 460.16 -12.2002 460.16 -12.2002 213.64 -12.2002 c 0,0,1
225.641 65.5596 m 4,13,14
 381.56 65.5596 381.56 65.5596 381.56 255.74 c 4,15,16
 381.56 435.62 381.56 435.62 226.282 435.62 c 4,17,18
 100.031 435.62 100.031 435.62 100.031 250.59 c 132,-1,19
 100.031 65.5596 100.031 65.5596 225.641 65.5596 c 4,13,14
EndSplineSet
EndChar

StartChar: q
Encoding: 113 113 84
Width: 501
VWidth: 1220
Flags: W
HStem: -12.542 77.251<27.3691 393.56> 435.38 77.1055<27.5124 379.036>
VStem: 1.84082 75.6289<8.91777 490.79> 373.653 83.8076<-245.22 -202.22 5.52139 500.2>
LayerCount: 2
Fore
SplineSet
252.02 512.485 m 0,0,1
 349.725 512.485 349.725 512.485 373.653 446.288 c 1,2,-1
 373.653 500.2 l 1,3,-1
 457.461 500.2 l 5,4,-1
 457.461 -245.22 l 5,5,-1
 375.337 -245.22 l 1,6,-1
 375.337 43.1152 l 1,7,8
 359.104 -12.542 359.104 -12.542 244.248 -12.542 c 0,9,10
 1.84082 -12.542 1.84082 -12.542 1.84082 249.971 c 128,-1,11
 1.84082 512.485 1.84082 512.485 252.02 512.485 c 0,0,1
244.472 64.709 m 0,12,13
 376.139 64.709 376.139 64.709 376.139 262.001 c 0,14,15
 376.139 435.38 376.139 435.38 243.994 435.38 c 0,16,17
 77.4697 435.38 77.4697 435.38 77.4697 250.68 c 0,18,19
 77.4697 64.709 77.4697 64.709 244.472 64.709 c 0,12,13
EndSplineSet
EndChar

StartChar: r
Encoding: 114 114 85
Width: 379
VWidth: 1220
Flags: W
HStem: 0 21G<21.2402 101.84>
VStem: 21.2402 80.5996<0 281.675 410.46 500.2>
LayerCount: 2
Fore
SplineSet
140.27 461.7 m 0,0,1
 199.946 510.5 199.946 510.5 272.03 510.5 c 0,2,3
 306.8 510.5 306.8 510.5 340.96 492.2 c 1,4,-1
 297.04 420.6 l 1,5,6
 264.104 427.919 264.104 427.919 224.45 418.77 c 128,-1,7
 184.794 409.62 184.794 409.62 157.903 380.657 c 128,-1,8
 131.012 351.694 131.012 351.694 116.426 312.566 c 128,-1,9
 101.84 273.438 101.84 273.438 101.84 248.58 c 2,10,-1
 101.84 0 l 1,11,-1
 21.2402 0 l 1,12,-1
 21.2402 500.2 l 1,13,-1
 103.06 500.2 l 1,14,-1
 103.06 410.46 l 1,15,-1
 103.06 411.68 l 2,16,17
 103.06 431.272 103.06 431.272 140.27 461.7 c 0,0,1
EndSplineSet
EndChar

StartChar: s
Encoding: 115 115 86
Width: 392
VWidth: 1220
Flags: W
HStem: -12.2852 81.2852<68.9432 278.562> 446.71 67.248<103.806 245.078>
LayerCount: 2
Fore
SplineSet
-3.27734 87.4375 m 1,0,-1
 52 138 l 1,1,2
 95.0332 70.5088 95.0332 70.5088 182 69 c 0,3,4
 256.278 67.9238 256.278 67.9238 265 122 c 0,5,6
 274.849 180.266 274.849 180.266 146.347 247.645 c 0,7,8
 41.9053 303.109 41.9053 303.109 49 389 c 0,9,10
 58.9092 513.363 58.9092 513.363 178.529 513.958 c 0,11,12
 255.517 514.425 255.517 514.425 305.523 459.464 c 1,13,-1
 271.565 408.74 l 0,14,15
 230.355 448.052 230.355 448.052 181.28 446.71 c 0,16,17
 121.685 445.472 121.685 445.472 121.685 382.088 c 0,18,19
 121.685 343.498 121.685 343.498 236.736 281.241 c 0,20,21
 360.734 214 360.734 214 347 118 c 0,22,23
 327.147 -12.2285 327.147 -12.2285 184.156 -12.2852 c 0,24,25
 40.6445 -12.3477 40.6445 -12.3477 -3.27734 87.4375 c 1,0,-1
EndSplineSet
EndChar

StartChar: t
Encoding: 116 116 87
Width: 257
VWidth: 1220
Flags: W
HStem: 0 21G<69.0859 149.872> 422.53 97.7998<3.36426 69.0859 152.3 219.229>
VStem: 69.0859 80.7861<0 422.53> 72.7217 79.5781<520.33 665.438>
LayerCount: 2
Fore
SplineSet
152.3 520.33 m 5,0,-1
 219.229 520.33 l 5,1,-1
 219.229 422.53 l 5,2,-1
 149.872 422.53 l 5,3,-1
 149.872 0 l 1,4,-1
 69.0859 0 l 1,5,-1
 69.0859 423.75 l 5,6,-1
 3.36426 423.75 l 5,7,-1
 3.36426 520.33 l 5,8,-1
 72.7217 520.33 l 5,9,-1
 72.7217 665.438 l 1,10,-1
 152.3 704.5 l 1,11,-1
 152.3 520.33 l 5,0,-1
EndSplineSet
EndChar

StartChar: u
Encoding: 117 117 88
Width: 433
VWidth: 1220
Flags: W
HStem: -12.8096 80.9277<61.6928 299.031>
VStem: 15.0596 79.9209<19.0137 500.2> 304.82 84.2598<0 67.1396> 308.48 80.5996<9.49775 500.2>
LayerCount: 2
Fore
SplineSet
15.0596 242.78 m 2,0,-1
 15.0596 500.2 l 1,1,-1
 94.9805 500.2 l 1,2,-1
 94.9805 231.8 l 2,3,4
 94.9805 68.1182 94.9805 68.1182 205.939 68.1182 c 0,5,6
 308.48 68.1182 308.48 68.1182 308.48 263.52 c 2,7,-1
 308.48 500.2 l 1,8,-1
 389.08 500.2 l 1,9,-1
 389.08 0 l 1,10,-1
 304.82 0 l 1,11,-1
 304.82 67.1396 l 1,12,13
 269.257 -12.8096 269.257 -12.8096 170.01 -12.8096 c 0,14,15
 15.0596 -12.8096 15.0596 -12.8096 15.0596 242.78 c 2,0,-1
EndSplineSet
EndChar

StartChar: v
Encoding: 118 118 89
Width: 498
VWidth: 1220
Flags: W
VStem: -13.7451 473.726<449.793 450.866>
LayerCount: 2
Fore
SplineSet
459.98 450.866 m 5,0,-1
 218.494 -51.167 l 1,1,-1
 -13.7451 449.793 l 5,2,-1
 47.334 507.328 l 5,3,-1
 48.3828 506.389 l 5,4,-1
 219.824 134.806 l 1,5,-1
 406.587 510.184 l 5,6,-1
 459.98 450.866 l 5,0,-1
EndSplineSet
EndChar

StartChar: w
Encoding: 119 119 90
Width: 728
VWidth: 1220
Flags: W
HStem: 273.917 209.325<232.209 441.535>
LayerCount: 2
Fore
SplineSet
-16.0371 483.242 m 1,0,-1
 52.9521 515.877 l 1,1,-1
 214.519 153.353 l 1,2,-1
 336.872 483.242 l 1,3,-1
 459.227 153.353 l 1,4,-1
 623.979 515.486 l 1,5,-1
 689.782 483.242 l 1,6,-1
 459.178 -40.3574 l 1,7,-1
 336.872 273.917 l 5,8,-1
 214.567 -40.3574 l 1,9,-1
 -16.0371 483.242 l 1,0,-1
EndSplineSet
EndChar

StartChar: x
Encoding: 120 120 91
Width: 448
VWidth: 1220
Flags: W
VStem: 2.83008 400.891<29.8164 30.9756>
LayerCount: 2
Fore
SplineSet
175.021 278.538 m 1,0,-1
 32 485.597 l 1,1,-1
 112.18 518.085 l 1,2,-1
 204.009 369.916 l 1,3,-1
 302.157 519.232 l 1,4,-1
 375.185 485.426 l 1,5,-1
 238.679 279.6 l 1,6,-1
 403.721 30.9756 l 1,7,-1
 403.306 29.2432 l 1,8,-1
 338.392 -22.9238 l 1,9,-1
 202.886 188.197 l 1,10,-1
 69.54 -22.8389 l 1,11,-1
 2.83008 29.8164 l 1,12,-1
 175.021 278.538 l 1,0,-1
EndSplineSet
EndChar

StartChar: y
Encoding: 121 121 92
Width: 500
VWidth: 1220
Flags: W
VStem: 20.7422 89.332<-228.665 -139.333>
LayerCount: 2
Fore
SplineSet
174.747 87.6084 m 1,0,-1
 -12.1074 489.83 l 1,1,-1
 61.4092 525.869 l 1,2,-1
 221.016 161.842 l 1,3,-1
 393.236 527.053 l 1,4,-1
 461.556 490.854 l 1,5,-1
 110.074 -228.665 l 5,6,-1
 20.7422 -228.665 l 1,7,-1
 174.747 87.6084 l 1,0,-1
EndSplineSet
EndChar

StartChar: z
Encoding: 122 122 93
Width: 461
VWidth: 1220
Flags: W
HStem: 1 77.9199<138.5 416.66> 427.04 78.04<66.2402 281.12>
VStem: -6.7998 423.46<1 78.9199>
LayerCount: 2
Fore
SplineSet
36.96 427.04 m 1,0,-1
 66.2402 505.08 l 1,1,-1
 409.34 505.08 l 1,2,-1
 138.5 78.9199 l 1,3,-1
 416.66 78.9199 l 1,4,-1
 416.66 0 l 1,5,-1
 -6.7998 1 l 1,6,-1
 281.12 428.04 l 1,7,-1
 36.96 427.04 l 1,0,-1
EndSplineSet
EndChar

StartChar: asciitilde
Encoding: 126 126 94
Width: 605
VWidth: 1220
Flags: W
HStem: 610 119.56<189.1 450.18>
VStem: 183 273.28<657.046 682.514 666.12 673.44>
LayerCount: 2
Fore
SplineSet
344.04 681.98 m 1,0,1
 352.586 664.906 352.586 664.906 369.66 663.07 c 128,-1,2
 386.74 661.24 386.74 661.24 397.72 674.05 c 128,-1,3
 408.706 686.867 408.706 686.867 400.16 703.94 c 1,4,-1
 400.16 704.55 l 2,5,6
 400.16 705.16 400.16 705.16 398.94 706.38 c 1,7,-1
 450.18 729.56 l 1,8,-1
 450.18 728.34 l 1,9,10
 462.38 699.06 462.38 699.06 456.28 673.44 c 128,-1,11
 450.188 647.832 450.188 647.832 428.22 633.79 c 128,-1,12
 406.284 619.77 406.284 619.77 381.25 614.88 c 128,-1,13
 356.234 609.994 356.234 609.994 331.84 620.98 c 128,-1,14
 307.446 631.96 307.446 631.96 295.24 657.58 c 1,15,-1
 344.04 681.98 l 1,0,1
295.24 657.58 m 1,16,17
 286.694 674.654 286.694 674.654 269.62 676.49 c 128,-1,18
 252.54 678.32 252.54 678.32 241.56 665.51 c 128,-1,19
 230.574 652.694 230.574 652.694 239.12 635.62 c 1,20,-1
 239.12 635.01 l 2,21,22
 239.12 634.4 239.12 634.4 240.34 633.18 c 1,23,-1
 189.1 610 l 1,24,-1
 189.1 611.22 l 1,25,26
 176.9 640.5 176.9 640.5 183 666.12 c 128,-1,27
 189.092 691.728 189.092 691.728 211.06 705.77 c 128,-1,28
 232.996 719.79 232.996 719.79 258.03 724.68 c 128,-1,29
 283.046 729.566 283.046 729.566 307.44 718.58 c 128,-1,30
 331.834 707.6 331.834 707.6 344.04 681.98 c 1,31,-1
 295.24 657.58 l 1,16,17
EndSplineSet
EndChar

StartChar: exclamdown
Encoding: 161 161 95
Width: 238
Flags: W
HStem: 0 21G<68 148> 676 20G<98 120.003>
VStem: 51 116<598.75 669.393> 68 80<0 441>
LayerCount: 2
Fore
SplineSet
68 0 m 1,0,-1
 68 441 l 1,1,-1
 148 441 l 1,2,-1
 148 0 l 1,3,-1
 68 0 l 1,0,-1
69 591.25 m 128,-1,5
 51 607 51 607 51 634.5 c 128,-1,6
 51 662 51 662 69 679 c 128,-1,7
 87 696 87 696 109 696 c 128,-1,8
 131.005 696 131.005 696 149 678.5 c 128,-1,9
 167 660.995 167 660.995 167 633 c 128,-1,10
 167 604.995 167 604.995 149 590.25 c 128,-1,11
 130.994 575.5 130.994 575.5 109 575.5 c 128,-1,4
 87 575.5 87 575.5 69 591.25 c 128,-1,5
EndSplineSet
EndChar

StartChar: yen
Encoding: 165 165 96
Width: 604
Flags: W
HStem: 166.02 69.99<48.2002 256.04 355.43 551.21> 310.02 69.99<45.1602 223.74 385.62 548.21> 672 20G<16.07 122.5 483.95 590.38>
VStem: 16.07 106.43<585.57 692> 256.04 99.39<1.52588e-05 166.02 236.01 310.02> 483.95 106.43<585.57 692>
LayerCount: 2
Fore
SplineSet
16.07 692 m 1,0,-1
 122.5 692 l 1,1,-1
 305.25 418.01 l 1,2,-1
 483.95 692 l 1,3,-1
 590.38 692 l 1,4,-1
 385.62 380.01 l 1,5,-1
 548.21 380.01 l 1,6,-1
 548.21 310.02 l 1,7,-1
 355.43 310.02 l 1,8,-1
 355.43 236.01 l 1,9,-1
 551.21 236.01 l 1,10,-1
 551.21 166.02 l 5,11,-1
 355.43 166.02 l 5,12,-1
 355.43 1.52588e-05 l 1,13,-1
 256.04 1.52588e-05 l 1,14,-1
 256.04 166.02 l 5,15,-1
 48.2002 166.02 l 5,16,-1
 48.2002 236.01 l 1,17,-1
 256.04 236.01 l 1,18,-1
 256.04 310.02 l 1,19,-1
 45.1602 310.02 l 1,20,-1
 45.16 380.01 l 1,21,-1
 223.74 380.01 l 1,22,-1
 16.07 692 l 1,0,-1
EndSplineSet
EndChar

StartChar: dieresis
Encoding: 200 168 97
Width: 413
Flags: W
HStem: 740 119<94.4 151.6 281.4 338.6>
VStem: 65 116<764.307 835.1> 252 116<764.307 835.1>
LayerCount: 2
Fore
SplineSet
65 800 m 0,0,1
 65 827 65 827 83 843 c 128,-1,2
 101 859 101 859 123 859 c 128,-1,3
 145 859 145 859 163 844 c 128,-1,4
 181 829 181 829 181 802 c 0,5,6
 181 773.005 181 773.005 163 756.5 c 128,-1,7
 145 740 145 740 123 740 c 128,-1,8
 101 740 101 740 83 756 c 128,-1,9
 65 772 65 772 65 800 c 0,0,1
252 800 m 0,10,11
 252 827 252 827 270 843 c 128,-1,12
 288 859 288 859 310 859 c 128,-1,13
 332 859 332 859 350 844 c 128,-1,14
 368 829 368 829 368 802 c 0,15,16
 368 773.005 368 773.005 350 756.5 c 128,-1,17
 332 740 332 740 310 740 c 128,-1,18
 288 740 288 740 270 756 c 128,-1,19
 252 772 252 772 252 800 c 0,10,11
EndSplineSet
EndChar

StartChar: guillemotleft
Encoding: 171 171 98
Width: 605
Flags: W
HStem: 196 91<353 444> 198 92<145 237> 399 87<357 444> 402 86<151 237>
VStem: 33 411<350 486>
LayerCount: 2
Fore
SplineSet
444 486 m 5,0,-1
 444 399 l 5,1,-1
 366 346 l 5,2,-1
 444 287 l 5,3,-1
 444 196 l 5,4,-1
 241 347 l 5,5,-1
 444 486 l 5,0,-1
237 488 m 5,6,-1
 237 402 l 5,7,-1
 159 348 l 5,8,-1
 237 290 l 5,9,-1
 237 198 l 5,10,-1
 33 350 l 5,11,-1
 237 488 l 5,6,-1
EndSplineSet
EndChar

StartChar: degree
Encoding: 258 176 99
Width: 560
Flags: W
HStem: 730 136<246.207 313.793 280 280>
VStem: 210 46<783.638 821.5> 305 45<782.935 822.503>
LayerCount: 2
Fore
SplineSet
256 802 m 0,0,1
 256 787.875 256 787.875 268 782.16 c 128,-1,2
 279.997 776.431 279.997 776.431 292.5 782 c 128,-1,3
 304.995 787.565 304.995 787.565 305 803 c 0,4,5
 305 818.002 305 818.002 292.5 824.5 c 128,-1,6
 279.993 831.001 279.993 831.001 268 824 c 128,-1,7
 256 817 256 817 256 802 c 0,0,1
210 801 m 0,8,9
 210 832.995 210 832.995 232 849.5 c 128,-1,10
 254.005 866 254.005 866 280 866 c 128,-1,11
 305.995 866 305.995 866 328 847 c 128,-1,12
 350.005 827.995 350.005 827.995 350 799 c 0,13,14
 350 768 350 768 328 749 c 128,-1,15
 305.995 729.995 305.995 729.995 280 730 c 128,-1,16
 254.005 730 254.005 730 232 748.5 c 128,-1,17
 209.995 766.995 209.995 766.995 210 801 c 0,8,9
EndSplineSet
EndChar

StartChar: plusminus
Encoding: 259 177 100
Width: 495
Flags: W
HStem: 127 91<54 442> 474 90<62 202 293 429> 687 20G<202 292>
VStem: 203 90<318 473 564 707>
LayerCount: 2
Fore
SplineSet
442 127 m 1,0,-1
 54 127 l 1,1,-1
 54 218 l 1,2,-1
 442 218 l 1,3,-1
 442 127 l 1,0,-1
429 474 m 1,4,-1
 293 474 l 1,5,-1
 293 318 l 1,6,-1
 203 318 l 1,7,-1
 203 473 l 1,8,-1
 62 473 l 1,9,-1
 62 561 l 1,10,-1
 202 561 l 1,11,-1
 202 707 l 1,12,-1
 292 707 l 1,13,-1
 292 564 l 1,14,-1
 429 564 l 1,15,-1
 429 474 l 1,4,-1
EndSplineSet
EndChar

StartChar: uni00B2
Encoding: 260 178 101
Width: 490
VWidth: 1220
Flags: W
HStem: 632 72.5<313.52 472.1> 1009.26 67.96<310.762 350.119>
VStem: 387.764 72.738<916.273 1010.68>
LayerCount: 2
Fore
SplineSet
362.726 886.964 m 2,0,1
 387.764 925.486 387.764 925.486 387.764 956.195 c 0,2,3
 387.764 998.106 387.764 998.106 345.753 1007.99 c 0,4,5
 340.317 1009.26 340.317 1009.26 330.458 1009.26 c 128,-1,6
 320.599 1009.26 320.599 1009.26 300.973 1001.05 c 128,-1,7
 281.348 992.829 281.348 992.829 274.023 970.87 c 2,8,-1
 270.567 960.51 l 1,9,-1
 207.409 1001 l 1,10,11
 239.998 1077.22 239.998 1077.22 335.5 1077.22 c 0,12,13
 400.205 1077.22 400.205 1077.22 430.354 1044.67 c 128,-1,14
 460.502 1012.12 460.502 1012.12 460.502 967.856 c 0,15,16
 460.502 903.867 460.502 903.867 408.231 830.671 c 2,17,-1
 313.52 704.5 l 1,18,-1
 472.1 704.5 l 1,19,-1
 472.1 632 l 1,20,-1
 166.979 632 l 1,21,-1
 362.726 886.964 l 2,0,1
EndSplineSet
EndChar

StartChar: uni00B3
Encoding: 261 179 102
Width: 466
VWidth: 1220
Flags: W
HStem: 631.167 73.333<232.511 380.305> 1021.43 70.43<187.23 348.134>
VStem: 381.369 70.163<747.954 829.186>
LayerCount: 2
Fore
SplineSet
189.254 729.543 m 1,0,1
 242.539 704.5 242.539 704.5 275.965 704.5 c 0,2,3
 357.762 704.5 357.762 704.5 376.231 749.495 c 0,4,5
 381.369 762.012 381.369 762.012 381.369 784.435 c 0,6,7
 381.369 818.859 381.369 818.859 342.956 843.005 c 128,-1,8
 304.544 867.15 304.544 867.15 250.072 867.15 c 2,9,-1
 225.812 867.15 l 1,10,-1
 339.489 1021.43 l 1,11,12
 327.484 1021.38 327.484 1021.38 309.041 1021.38 c 1,13,-1
 199.343 1021.38 l 1,14,-1
 187.23 1021.38 l 1,15,-1
 187.23 1091.86 l 1,16,-1
 472.763 1091.86 l 1,17,-1
 348.033 918.695 l 1,18,19
 395.563 906.334 395.563 906.334 423.548 876.79 c 128,-1,20
 451.532 847.246 451.532 847.246 451.532 781.809 c 128,-1,21
 451.532 716.372 451.532 716.372 405.331 673.769 c 128,-1,22
 359.129 631.167 359.129 631.167 288.543 631.167 c 0,23,24
 211.075 631.167 211.075 631.167 140.109 671.302 c 1,25,-1
 181.302 727.606 l 1,26,-1
 189.254 729.543 l 1,0,1
EndSplineSet
EndChar

StartChar: acute
Encoding: 194 180 103
Width: 1000
Flags: W
HStem: 791 194<334 424>
VStem: 284 202<838 912>
LayerCount: 2
Fore
SplineSet
424 985 m 1,0,-1
 486 912 l 1,1,-1
 334 791 l 1,2,-1
 284 838 l 1,3,-1
 424 985 l 1,0,-1
EndSplineSet
EndChar

StartChar: uni00B9
Encoding: 262 185 104
Width: 346
VWidth: 1220
Flags: W
HStem: 638.1 469.39<279.34 279.34>
VStem: 203.879 75.461<638.1 937.381>
LayerCount: 2
Fore
SplineSet
203.879 937.381 m 1,0,-1
 196.944 929.913 l 1,1,-1
 146.058 975.874 l 1,2,-1
 279.34 1107.49 l 1,3,-1
 279.34 638.1 l 1,4,-1
 205 638.1 l 1,5,-1
 205 646.6 l 1,6,-1
 203.879 937.381 l 1,0,-1
EndSplineSet
EndChar

StartChar: guillemotright
Encoding: 187 187 105
Width: 605
Flags: W
HStem: 194 91<34 125> 196 92<242 334> 397 87<34 121> 400 86<242 328>
VStem: 34 411<348 484>
LayerCount: 2
Fore
SplineSet
34 484 m 5,0,-1
 238 345 l 5,1,-1
 34 194 l 5,2,-1
 34 285 l 5,3,-1
 112 344 l 5,4,-1
 34 397 l 5,5,-1
 34 484 l 5,0,-1
242 486 m 5,6,-1
 445 348 l 5,7,-1
 242 196 l 5,8,-1
 242 288 l 5,9,-1
 320 346 l 5,10,-1
 242 400 l 5,11,-1
 242 486 l 5,6,-1
EndSplineSet
EndChar

StartChar: questiondown
Encoding: 191 191 106
Width: 399
Flags: W
HStem: -8.50003 94<123.906 315.352>
VStem: 38.5 99<69.6346 238.292> 207.5 105<440.317 537.5>
LayerCount: 2
Fore
SplineSet
409.529 69.0509 m 1,0,1
 344.968 -8.50003 344.968 -8.50003 231 -8.50003 c 0,2,3
 148.62 -8.50003 148.62 -8.50003 93.56 43.4171 c 128,-1,4
 38.5 95.3343 38.5 95.3343 38.5 181 c 0,5,6
 38.5 225.071 38.5 225.071 56.72 260.486 c 128,-1,7
 74.9399 295.901 74.9399 295.901 117.851 340.869 c 2,8,-1
 159.851 384.869 l 2,9,10
 194.908 421.601 194.908 421.601 201.204 441.443 c 128,-1,11
 207.5 461.285 207.5 461.285 207.5 512 c 2,12,-1
 210.441 537.5 l 1,13,-1
 312.5 537.5 l 1,14,-1
 312.5 500.2 l 2,15,16
 312.5 440.217 312.5 440.217 296.616 408.38 c 128,-1,17
 280.731 376.542 280.731 376.542 240.24 333.229 c 2,18,-1
 197.244 286.232 l 2,19,20
 193.505 282.224 193.505 282.224 182.406 271.741 c 0,21,22
 137.5 229.328 137.5 229.328 137.5 191 c 0,23,24
 137.5 85.5 137.5 85.5 244 85.5 c 0,25,26
 298.886 85.5 298.886 85.5 324.03 115.013 c 0,27,28
 335.633 128.632 335.633 128.632 350.798 144.813 c 2,29,-1
 358.446 152.973 l 1,30,-1
 409.529 69.0509 l 1,0,1
327.5 689.5 m 128,-1,32
 327.5 658.145 327.5 658.145 306.848 640.073 c 128,-1,33
 286.196 622 286.196 622 261 622 c 128,-1,34
 235.969 622 235.969 622 215.235 638.985 c 128,-1,35
 194.5 655.97 194.5 655.97 194.5 687.856 c 128,-1,36
 194.5 719.742 194.5 719.742 215.098 738.621 c 128,-1,37
 235.697 757.5 235.697 757.5 261 757.5 c 128,-1,38
 286.235 757.5 286.235 757.5 306.867 739.157 c 128,-1,31
 327.5 720.814 327.5 720.814 327.5 689.5 c 128,-1,32
EndSplineSet
EndChar

StartChar: Idieresis
Encoding: 275 207 119
Width: 246
Flags: W
HStem: 0 21G<84 173> 676 20G<83 173> 767 119<-7.6 49.6 213.4 270.6>
VStem: -37 116<791.307 862.1> 83 90<0 696> 184 116<791.307 862.1>
LayerCount: 2
Fore
SplineSet
-37 827 m 0,0,1
 -37 854 -37 854 -19 870 c 128,-1,2
 -1 886 -1 886 21 886 c 128,-1,3
 43 886 43 886 61 871 c 128,-1,4
 79 856 79 856 79 829 c 0,5,6
 79 800.005 79 800.005 61 783.5 c 128,-1,7
 43 767 43 767 21 767 c 128,-1,8
 -1 767 -1 767 -19 783 c 128,-1,9
 -37 799 -37 799 -37 827 c 0,0,1
184 827 m 0,10,11
 184 854 184 854 202 870 c 128,-1,12
 220 886 220 886 242 886 c 128,-1,13
 264 886 264 886 282 871 c 128,-1,14
 300 856 300 856 300 829 c 0,15,16
 300 800.005 300 800.005 282 783.5 c 128,-1,17
 264 767 264 767 242 767 c 128,-1,18
 220 767 220 767 202 783 c 128,-1,19
 184 799 184 799 184 827 c 0,10,11
83 696 m 1,20,-1
 173 696 l 1,21,-1
 173 0 l 1,22,-1
 84 0 l 1,23,-1
 83 696 l 1,20,-1
EndSplineSet
EndChar

StartChar: multiply
Encoding: 281 215 125
Width: 495
Flags: W
HStem: 187 338<143 355>
VStem: 79 340<251 461>
LayerCount: 2
Fore
SplineSet
405 457 m 1,0,-1
 309 360 l 1,1,-1
 419 251 l 1,2,-1
 355 187 l 1,3,-1
 245 296 l 1,4,-1
 147 196 l 1,5,-1
 83 260 l 1,6,-1
 184 361 l 5,7,-1
 79 461 l 1,8,-1
 143 525 l 1,9,-1
 245 424 l 1,10,-1
 341 521 l 1,11,-1
 405 457 l 1,0,-1
EndSplineSet
EndChar

StartChar: dotlessi
Encoding: 245 305 158
Width: 207
VWidth: 1172
Flags: W
VStem: 60 91<-47.6299 512.63>
LayerCount: 2
Fore
SplineSet
60 512.63 m 1,0,-1
 151 512.63 l 1,1,-1
 151 -47.6299 l 1,2,-1
 60 -47.6299 l 1,3,-1
 60 512.63 l 1,0,-1
EndSplineSet
EndChar

StartChar: uni030A
Encoding: 322 778 167
Width: 154
Flags: W
HStem: 877.79 165.31<51.4918 133.948 92.7197 92.7197>
VStem: 7.32031 56.1201<939.636 990.404> 123.22 54.9<940.876 990.034>
LayerCount: 2
Fore
SplineSet
63.4404 965.02 m 128,-1,1
 63.4404 945.494 63.4404 945.494 78.0801 937.57 c 128,-1,2
 92.7344 929.639 92.7344 929.639 107.97 938.18 c 128,-1,3
 123.22 946.729 123.22 946.729 123.22 966.24 c 0,4,5
 123.22 984.543 123.22 984.543 107.97 992.47 c 128,-1,6
 92.7227 1000.4 92.7227 1000.4 78.0801 992.47 c 128,-1,0
 63.4404 984.546 63.4404 984.546 63.4404 965.02 c 128,-1,1
7.32031 963.8 m 0,7,8
 7.32031 1004.06 7.32031 1004.06 34.1602 1023.58 c 128,-1,9
 61.0059 1043.11 61.0059 1043.11 92.7197 1043.1 c 128,-1,10
 124.434 1043.1 124.434 1043.1 151.28 1019.92 c 128,-1,11
 178.126 996.734 178.126 996.734 178.12 961.36 c 0,12,13
 178.12 923.534 178.12 923.534 151.28 900.665 c 128,-1,14
 124.434 877.79 124.434 877.79 92.7197 877.79 c 128,-1,15
 61.0059 877.79 61.0059 877.79 34.1602 900.055 c 128,-1,16
 7.32031 922.321 7.32031 922.321 7.32031 963.8 c 0,7,8
EndSplineSet
EndChar

StartChar: quoteleft
Encoding: 96 8216 168
Width: 209
VWidth: 1075
Flags: W
HStem: 548 217.77<90.1465 119.426>
VStem: 30.3662 74.4198<607.17 704.77>
LayerCount: 2
Fore
SplineSet
136.506 612.05 m 1,0,1
 140.164 588.88 140.164 588.88 124.916 571.18 c 128,-1,2
 109.672 553.483 109.672 553.483 90.1465 548 c 128,-1,3
 70.624 542.511 70.624 542.511 50.4961 557.15 c 128,-1,4
 30.3662 571.79 30.3662 571.79 30.3662 607.17 c 0,5,6
 30.3662 662.07 30.3662 662.07 58.4258 708.43 c 128,-1,7
 86.4863 754.79 86.4863 754.79 119.426 765.77 c 1,8,9
 104.786 748.696 104.786 748.696 104.786 704.77 c 128,-1,10
 104.786 660.85 104.786 660.85 118.206 642.55 c 1,11,12
 136.506 629.13 136.506 629.13 136.506 612.05 c 1,0,1
EndSplineSet
EndChar

StartChar: quoteright
Encoding: 39 8217 169
Width: 206
VWidth: 1077
Flags: W
HStem: 538.053 218.99<75.6758 87.2656>
LayerCount: 2
Fore
SplineSet
46.3965 689.333 m 0,0,1
 46.3965 712.52 46.3965 712.52 57.376 731.423 c 128,-1,2
 68.3545 750.324 68.3545 750.324 87.2656 757.043 c 128,-1,3
 106.157 763.756 106.157 763.756 125.696 750.333 c 128,-1,4
 145.222 736.919 145.222 736.919 151.316 702.753 c 0,5,6
 158.636 649.079 158.636 649.079 132.406 600.273 c 128,-1,7
 106.182 551.467 106.182 551.467 75.6758 538.053 c 1,8,9
 84.2158 557.573 84.2158 557.573 84.2158 602.713 c 128,-1,10
 84.2158 647.859 84.2158 647.859 65.3057 660.053 c 128,-1,11
 46.4023 672.26 46.4023 672.26 46.3965 689.333 c 0,0,1
EndSplineSet
EndChar

StartChar: quotedblleft
Encoding: 170 8220 170
Width: 324
VWidth: 1075
Flags: W
HStem: 547.78 220.21<76.6797 254.8>
VStem: 16.9004 74.4199<606.95 704.55> 165.74 75.03<609.39 704.55>
LayerCount: 2
Fore
SplineSet
273.1 614.27 m 0,0,1
 273.1 592.31 273.1 592.31 259.68 574.01 c 128,-1,2
 246.273 555.72 246.273 555.72 226.13 550.83 c 128,-1,3
 206.006 545.945 206.006 545.945 185.87 560.59 c 128,-1,4
 165.74 575.229 165.74 575.229 165.74 609.39 c 0,5,6
 165.74 664.29 165.74 664.29 193.8 710.65 c 128,-1,7
 221.86 757.01 221.86 757.01 254.8 767.99 c 1,8,9
 240.764 749.086 240.764 749.086 240.77 704.55 c 128,-1,10
 240.77 660.026 240.77 660.026 253.58 645.99 c 1,11,12
 273.1 632.57 273.1 632.57 273.1 614.27 c 0,0,1
123.04 611.83 m 1,13,14
 126.697 588.66 126.697 588.66 111.45 570.96 c 128,-1,15
 96.2061 553.264 96.2061 553.264 76.6797 547.78 c 128,-1,16
 57.1582 542.291 57.1582 542.291 37.0303 556.93 c 128,-1,17
 16.9004 571.57 16.9004 571.57 16.9004 606.95 c 0,18,19
 16.9004 661.85 16.9004 661.85 44.96 708.21 c 128,-1,20
 73.0195 754.57 73.0195 754.57 105.96 765.55 c 1,21,22
 91.3203 748.477 91.3203 748.477 91.3203 704.55 c 128,-1,23
 91.3203 660.63 91.3203 660.63 104.74 642.33 c 1,24,25
 123.04 628.91 123.04 628.91 123.04 611.83 c 1,13,14
EndSplineSet
EndChar

StartChar: quotedblright
Encoding: 186 8221 171
Width: 399
VWidth: 1077
Flags: W
HStem: 537.803 222.04<60.8262 237.116>
LayerCount: 2
Fore
SplineSet
196.246 692.743 m 1,0,1
 191.366 714.703 191.366 714.703 204.786 734.223 c 128,-1,2
 218.196 753.744 218.196 753.744 237.116 759.843 c 128,-1,3
 256.02 765.937 256.02 765.937 275.546 753.133 c 128,-1,4
 295.072 740.323 295.072 740.323 301.166 706.163 c 0,5,6
 308.486 651.267 308.486 651.267 282.256 603.073 c 128,-1,7
 256.032 554.889 256.032 554.889 225.526 540.243 c 1,8,9
 234.066 559.763 234.066 559.763 234.066 604.902 c 128,-1,10
 234.066 650.049 234.066 650.049 215.156 663.499 c 128,-1,11
 196.252 676.95 196.252 676.95 196.246 692.743 c 1,0,1
31.5459 689.083 m 0,12,13
 31.5459 712.269 31.5459 712.269 42.5264 731.173 c 128,-1,14
 53.5049 750.074 53.5049 750.074 72.416 756.793 c 128,-1,15
 91.3076 763.505 91.3076 763.505 110.846 750.083 c 128,-1,16
 130.372 736.669 130.372 736.669 136.466 702.503 c 0,17,18
 143.786 648.829 143.786 648.829 117.556 600.022 c 128,-1,19
 91.332 551.217 91.332 551.217 60.8262 537.803 c 1,20,21
 69.3662 557.323 69.3662 557.323 69.3662 602.463 c 128,-1,22
 69.3662 647.609 69.3662 647.609 50.4561 659.803 c 128,-1,23
 31.5518 672.009 31.5518 672.009 31.5459 689.083 c 0,12,13
EndSplineSet
EndChar

StartChar: uniFB00
Encoding: 323 64256 172
Width: 809
VWidth: 1220
Flags: W
HStem: 0 21G<121 202 364 446> 439 81<55 121 204 281 303 364 448 512> 641.513 73.527<180.311 396.111>
VStem: 120 85<0 439 510.072 666.567> 364 82<0 439> 371 77<520 630.5>
LayerCount: 2
Fore
SplineSet
428 655 m 1,0,1
 451.729 719.594 451.729 719.594 542 723 c 0,2,3
 597.5 725 597.5 725 614 685 c 1,4,-1
 576 636 l 1,5,6
 532.818 662.887 532.818 662.887 491.409 633.943 c 0,7,8
 449.031 605 449.031 605 448 520 c 5,9,-1
 512 520 l 5,10,-1
 512 439 l 5,11,-1
 446 439 l 5,12,-1
 446 0 l 1,13,-1
 364 0 l 1,14,-1
 364 439 l 5,15,-1
 303 439 l 5,16,-1
 303 520 l 5,17,-1
 371 520 l 5,18,-1
 371 562 l 0,19,20
 371 641.513 371 641.513 287.297 641.513 c 0,21,22
 205 641.513 205 641.513 205 558 c 0,23,24
 204 556.508 204 556.508 204 520 c 5,25,-1
 281 520 l 5,26,-1
 281 439 l 5,27,-1
 202 439 l 5,28,-1
 202 0 l 1,29,-1
 121 0 l 1,30,-1
 121 439 l 5,31,-1
 55 439 l 5,32,-1
 55 520 l 5,33,-1
 121 520 l 5,34,35
 120 526.201 120 526.201 120 554 c 0,36,37
 120 715.04 120 715.04 288 715.04 c 0,38,39
 383.403 715.04 383.403 715.04 428 655 c 1,0,1
EndSplineSet
LCarets2: 1 -3 
Ligature2: "'liga' Standard Ligatures in Latin lookup 0 subtable" f f
EndChar

StartChar: germandbls
Encoding: 251 223 173
Width: 503
VWidth: 1220
Flags: W
HStem: 0 21G<96.8105 178.522> 442.692 77.318<28.4053 96.8105 182.598 367.647> 702.601 80.615<159.062 278.972>
VStem: 96.8105 81.7115<0 442.692> 102.276 80.322<520.01 757.378>
LayerCount: 2
Fore
SplineSet
261.05 702.601 m 0,0,1
 182.598 702.601 182.598 702.601 182.598 520.01 c 1,2,-1
 463.995 520.01 l 1,3,-1
 463.995 442.692 l 1,4,-1
 377.892 298.473 l 1,5,6
 458.7 233.6 458.7 233.6 458.7 120.505 c 128,-1,7
 458.7 7.41113 458.7 7.41113 352.048 -71.8701 c 1,8,-1
 248.88 -71.8701 l 1,9,10
 356.555 7.94824 356.555 7.94824 371.686 106.213 c 128,-1,11
 386.838 204.484 386.838 204.484 290.445 298.473 c 1,12,-1
 367.647 442.692 l 1,13,-1
 178.522 442.692 l 1,14,-1
 178.522 0 l 1,15,-1
 96.8105 0 l 1,16,-1
 96.8105 442.692 l 1,17,-1
 28.4053 442.692 l 1,18,-1
 28.4053 520.28 l 1,19,-1
 102.276 520.28 l 0,20,21
 102.276 783.216 102.276 783.216 252.588 783.216 c 0,22,23
 314.354 783.216 314.354 783.216 367.103 742.508 c 1,24,-1
 308.274 683.328 l 1,25,26
 274.836 702.601 274.836 702.601 261.05 702.601 c 0,0,1
EndSplineSet
EndChar

StartChar: longs
Encoding: 324 383 174
Width: 274
Flags: W
HStem: 0 21G<42 125> 629 86<155.2 202>
VStem: 42 83<0 594.706>
LayerCount: 2
Fore
SplineSet
42 494 m 6,0,1
 42 617.469 42 617.469 109 678 c 0,2,3
 149.95 715.005 149.95 715.005 190 715 c 0,4,5
 254.68 715 254.68 715 267 695 c 1,6,-1
 219 620 l 1,7,-1
 202 629 l 1,8,9
 166 629 166 629 145.5 600 c 128,-1,10
 125 571.005 125 571.005 125 492 c 2,11,-1
 125 0 l 1,12,-1
 42 0 l 5,13,-1
 42 494 l 6,0,1
EndSplineSet
EndChar

StartChar: cent
Encoding: 162 162 175
Width: 588
Flags: W
HStem: 478.4 70.4<358.4 401.046>
VStem: 130.4 76.8<300.8 419.366> 296.8 61.6<93.6 172.8 244.8 477.6 548.8 610.4>
LayerCount: 2
Fore
SplineSet
445.6 445.6 m 1,0,1
 401.612 478.4 401.612 478.4 358.4 478.4 c 1,2,-1
 358.4 244.8 l 1,3,4
 406.044 256.01 406.044 256.01 445.6 282.4 c 1,5,-1
 445.6 200.8 l 1,6,7
 401.613 172.8 401.613 172.8 358.4 172.8 c 1,8,-1
 358.4 93.6 l 1,9,-1
 296.8 93.6 l 1,10,-1
 296.8 174.4 l 1,11,12
 224.005 174.4 224.005 174.4 177.2 228.4 c 128,-1,13
 130.4 282.4 130.4 282.4 130.4 357.6 c 0,14,15
 130.4 433.605 130.4 433.605 175.6 484.4 c 0,16,17
 221.44 535.205 221.44 535.205 296.8 547.2 c 1,18,-1
 296.8 610.4 l 1,19,-1
 358.4 610.4 l 1,20,-1
 358.4 548.8 l 1,21,22
 391.205 548.8 391.205 548.8 445.6 525.6 c 1,23,-1
 445.6 445.6 l 1,0,1
296.8 477.6 m 1,24,25
 259.9 470.4 259.9 470.4 233.2 438.4 c 0,26,27
 207.205 406.405 207.205 406.405 207.2 363.2 c 0,28,29
 207.2 315.2 207.2 315.2 232 284 c 0,30,31
 257.515 252.8 257.515 252.8 296.8 244.8 c 1,32,-1
 296.8 477.6 l 1,24,25
EndSplineSet
EndChar

StartChar: Euro
Encoding: 325 8364 176
Width: 524
Flags: W
HStem: 42.22 78.12<156.753 415.094> 263.13 70.17<12.54 63.91 143.4 359.98> 391.9 70.07<19.4 69.7 146.05 382.42> 595.74 83.08<141.506 406.749>
VStem: 69.7 68.41<333.3 391.9>
LayerCount: 2
Fore
SplineSet
466.21 187.38 m 1,0,-1
 466.21 89.84 l 1,1,2
 398.8 42.215 398.8 42.215 306.36 42.22 c 0,3,4
 130.47 42.22 130.47 42.22 72.24 263.13 c 1,5,-1
 -6.85996 263.13 l 1,6,-1
 12.54 333.3 l 1,7,-1
 63.91 333.3 l 1,8,9
 69.7 336.24 69.7 336.24 69.7 391.9 c 1,10,-1
 3.62396e-05 391.9 l 1,11,-1
 19.4 461.97 l 1,12,-1
 70.09 461.97 l 1,13,14
 109.66 678.825 109.66 678.825 310.1 678.82 c 0,15,16
 384.445 678.82 384.445 678.82 460.36 619.42 c 1,17,-1
 460.36 524.3 l 1,18,19
 396.07 595.745 396.07 595.745 318.04 595.74 c 0,20,21
 182.245 595.74 182.245 595.74 146.05 461.97 c 1,22,-1
 411.14 461.97 l 1,23,-1
 382.42 391.9 l 1,24,-1
 138.11 391.9 l 1,25,-1
 138.11 333.3 l 1,26,-1
 388.6 333.3 l 1,27,-1
 359.98 263.13 l 1,28,-1
 143.4 263.13 l 1,29,30
 192.75 120.345 192.75 120.345 312.74 120.34 c 0,31,32
 391.474 120.34 391.474 120.34 466.21 187.38 c 1,0,-1
EndSplineSet
EndChar

StartChar: fi
Encoding: 174 64257 177
Width: 1000
Flags: W
HStem: 440.01 80.01<31.1201 81.3398 164.72 303.67> 631.17 83.83<188.344 321.766>
VStem: 81.3398 80.3802<3.05176e-05 440.01> 85.3496 79.3704<520.02 593.958> 304.57 79.07<3.05176e-05 440.01 567.47 650.28>
LayerCount: 2
Fore
SplineSet
383.64 567.47 m 5,0,-1
 304.57 567.47 l 5,1,2
 304.57 631.17 304.57 631.17 247.25 631.17 c 0,3,4
 201.938 631.17 201.938 631.17 183.32 604.03 c 128,-1,5
 164.72 576.895 164.72 576.895 164.72 520.02 c 1,6,-1
 383.64 520.02 l 1,7,-1
 383.64 3.05176e-05 l 1,8,-1
 303.67 3.05176e-05 l 1,9,-1
 303.67 440.01 l 1,10,-1
 161.72 440.01 l 1,11,-1
 161.72 3.05176e-05 l 1,12,-1
 81.34 3.05176e-05 l 1,13,-1
 81.3398 441.99 l 1,14,-1
 31.1201 441.99 l 1,15,-1
 31.1201 520.02 l 1,16,-1
 85.3496 520.02 l 1,17,18
 85.3496 613.52 85.3496 613.52 131.42 664.26 c 128,-1,19
 177.5 715.005 177.5 715.005 245 715 c 0,20,21
 383.63 715 383.63 715 383.64 567.47 c 5,0,-1
EndSplineSet
LCarets2: 1 0 
Ligature2: "'liga' Standard Ligatures in Latin lookup 0 subtable" f i
EndChar

StartChar: fl
Encoding: 175 64258 178
Width: 477
Flags: W
HStem: 0 21G<81.34 161.72 333.41 413.79> 440.01 80.01<31.1201 81.3398 164.71 268.15> 640.76 74.51<205.21 333.41>
VStem: 81.3398 80.3802<0 440.01> 85.3496 79.3604<520.02 607.464> 333.41 80.38<0 640.76>
LayerCount: 2
Fore
SplineSet
413.79 714.26 m 1,0,-1
 413.79 0 l 1,1,-1
 333.41 0 l 1,2,-1
 333.41 640.76 l 1,3,-1
 254.77 640.76 l 2,4,5
 205.21 640.76 205.21 640.76 184.96 614.03 c 128,-1,6
 164.71 587.285 164.71 587.285 164.71 520.02 c 1,7,-1
 268.15 520.02 l 1,8,-1
 268.15 440.01 l 1,9,-1
 161.72 440.01 l 1,10,-1
 161.72 0 l 1,11,-1
 81.34 0 l 1,12,-1
 81.3398 441.99 l 1,13,-1
 31.1201 441.99 l 1,14,-1
 31.1201 520.02 l 1,15,-1
 85.3496 520.02 l 1,16,17
 85.3496 597.985 85.3496 597.985 124.29 651.87 c 0,18,19
 170.685 716.085 170.685 716.085 261.85 715.27 c 0,20,21
 374.888 714.26 374.888 714.26 413.79 714.26 c 1,0,-1
EndSplineSet
LCarets2: 1 0 
Ligature2: "'liga' Standard Ligatures in Latin lookup 0 subtable" f l
EndChar

StartChar: uniFB06
Encoding: 326 64262 179
Width: 429
Flags: W
HStem: 0 21G<262.53 341.99> 435.02 85<216.81 262.53 343.21 393.66> 643.15 71.54<153.849 266.51>
VStem: 44.7695 78.6705<-3.05176e-05 557.719> 262.53 79.46<0 435.02> 266.51 76.7<520.02 643.15>
LayerCount: 2
Fore
SplineSet
204.25 714.69 m 2,0,-1
 343.21 714.69 l 1,1,-1
 343.21 520.02 l 5,2,-1
 393.66 520.02 l 5,3,-1
 393.66 435.02 l 5,4,-1
 341.99 435.02 l 5,5,-1
 341.99 0 l 1,6,-1
 262.53 0 l 1,7,-1
 262.53 435.98 l 5,8,-1
 216.81 435.98 l 5,9,-1
 216.81 520.02 l 5,10,-1
 266.51 520.02 l 5,11,-1
 266.51 643.15 l 1,12,-1
 216.23 643.15 l 2,13,14
 168.245 643.15 168.245 643.15 141.19 599.56 c 0,15,16
 123.44 571.094 123.44 571.094 123.44 492.02 c 2,17,-1
 123.44 -3.05176e-05 l 1,18,-1
 44.77 -3.05176e-05 l 1,19,-1
 44.7695 493.99 l 2,20,21
 44.7695 543.012 44.7695 543.012 61.75 595.61 c 0,22,23
 78.7451 647.3 78.7451 647.3 103.09 670.51 c 0,24,25
 149.447 714.69 149.447 714.69 204.25 714.69 c 2,0,-1
EndSplineSet
LCarets2: 1 0 
Ligature2: "'dlig' optionale Ligaturen in Latin lookup 1 subtable" s t
EndChar

StartChar: emdash
Encoding: 208 8212 180
Width: 694
Flags: W
HStem: 213.5 98<40.5 446.5>
LayerCount: 2
Fore
SplineSet
651.5 213.5 m 5,10,-1
 40.5 213.5 l 1,1,-1
 40.5 311.5 l 1,4,-1
 651.5 311.5 l 5,7,-1
 651.5 213.5 l 5,10,-1
EndSplineSet
EndChar

StartChar: endash
Encoding: 177 8211 181
Width: 470
Flags: W
HStem: 213.5 98<40.5 446.5>
LayerCount: 2
Fore
SplineSet
49 213.5 m 1,0,-1
 40.5 213.5 l 1,1,-1
 40.5 222 l 1,2,-1
 40.5 303 l 1,3,-1
 40.5 311.5 l 1,4,-1
 49 311.5 l 1,5,-1
 438 311.5 l 1,6,-1
 446.5 311.5 l 1,7,-1
 446.5 303 l 1,8,-1
 446.5 222 l 1,9,-1
 446.5 213.5 l 1,10,-1
 438 213.5 l 1,11,-1
 49 213.5 l 1,0,-1
EndSplineSet
EndChar
